<?xml version="1.0" encoding="utf-8"?>
<!-- Generator: Adobe Illustrator 19.1.0, SVG Export Plug-In . SVG Version: 6.00 Build 0)  -->
<svg version="1.1" id="Layer_1" xmlns="http://www.w3.org/2000/svg" xmlns:xlink="http://www.w3.org/1999/xlink" x="0px" y="0px"
	 viewBox="0 0 220.5 109.5" style="enable-background:new 0 0 220.5 109.5;" xml:space="preserve">
<style type="text/css">
	.st0{fill:none;stroke:#000000;stroke-width:4;stroke-miterlimit:10;}
	.st1{fill:#FFFFFF;}
	.st2{fill:none;stroke:#010202;stroke-width:3;stroke-miterlimit:10;}
	.st3{fill:none;stroke:#010202;stroke-width:4;stroke-miterlimit:10;}
	.st4{fill:none;stroke:#010202;stroke-width:2;stroke-miterlimit:10;}
	.st5{fill:none;stroke:#010202;stroke-miterlimit:10;}
	.st6{fill:#010202;}
	.st7{fill:none;stroke:#7C7C7C;stroke-width:0.25;stroke-miterlimit:10;}
	.st8{display:none;fill:#010202;}
	.st9{fill:#FFFFFF;stroke:#525151;stroke-width:0.25;stroke-miterlimit:10;}
	.st10{fill:none;stroke:#E52420;stroke-miterlimit:10;}
	.st11{fill:none;stroke:#66B32E;stroke-miterlimit:10;}
	.st12{fill:none;stroke:#2A4B9B;stroke-miterlimit:10;}
	.st13{fill:none;}
	.st14{fill:#E52420;}
	.st15{fill:#66B32E;}
	.st16{fill:#2A4B9B;}
	.st17{fill:#1E1E1C;}
	.st18{fill:#525151;}
</style>
<path class="st0" d="M-7463.1-1982.5h-1260v-322c0-51.9,42.1-94,94-94h1166V-1982.5z"/>
<path class="st0" d="M-7460.1-1958.5h-1260v-322c0-51.9,42.1-94,94-94h1166V-1958.5z"/>
<path class="st0" d="M-7461.1-1938.5h-1260v-322c0-51.9,42.1-94,94-94h1166V-1938.5z"/>
<path class="st1" d="M-7455.1-2353.5h-840c-240.8,0-436,195.2-436,436v0h1276V-2353.5z"/>
<path class="st0" d="M-7496-1558.6h-1260v-322c0-51.9,42.1-94,94-94h1166V-1558.6z"/>
<path class="st0" d="M-7493-1534.6h-1260v-322c0-51.9,42.1-94,94-94h1166V-1534.6z"/>
<path class="st0" d="M-7487-1514.6h-1260v-322c0-51.9,42.1-94,94-94h1166V-1514.6z"/>
<path class="st1" d="M-7477-1928.6h-840c-240.8,0-436,195.2-436,436v0h1276V-1928.6z"/>
<rect x="-7477.5" y="-2396.5" class="st1" width="17.9" height="20"/>
<rect x="-7467" y="-2372.3" class="st1" width="13" height="15.6"/>
<path class="st0" d="M-6048.5-2008.1h-1260v-322c0-51.9,42.1-94,94-94h1166V-2008.1z"/>
<path class="st0" d="M-6045.5-1984.1h-1260v-322c0-51.9,42.1-94,94-94h1166V-1984.1z"/>
<path class="st0" d="M-6046.5-1964.1h-1260v-322c0-51.9,42.1-94,94-94h1166V-1964.1z"/>
<path class="st1" d="M-6040.5-2379.1h-840c-240.8,0-436,195.2-436,436v0h1276V-2379.1z"/>
<rect x="-6450" y="-1444" class="st1" width="17.9" height="20"/>
<rect x="-6439.5" y="-1419.8" class="st1" width="13" height="15.6"/>
<rect x="-4810.9" y="-1856.1" class="st1" width="8.8" height="9.8"/>
<rect x="-4805.8" y="-1844.2" class="st1" width="6.3" height="7.6"/>
<path class="st2" d="M-8015.4-1042.4h-549v-56.2c0-65,52.7-117.7,117.7-117.7h431.2V-1042.4z"/>
<polygon class="st1" points="-8592.8,-1037.9 -8001.9,-1220.9 -7997.4,-1034.9 "/>
<path class="st2" d="M-8015.9-1027.9h-549v-56.2c0-65,52.7-117.7,117.7-117.7h431.2V-1027.9z"/>
<polygon class="st1" points="-8593.3,-1023.4 -8002.4,-1206.4 -7997.9,-1020.4 "/>
<path class="st2" d="M-8015.9-1014.4h-549v-56.2c0-65,52.7-117.7,117.7-117.7h431.2V-1014.4z"/>
<polygon class="st1" points="-8593.3,-1009.9 -8002.4,-1192.9 -7997.9,-1006.9 "/>
<path class="st2" d="M-8070.8-568h-425.6v-17.1c0-65,52.7-117.7,117.7-117.7h307.9V-568z"/>
<polygon class="st1" points="-8518.5,-564.5 -8060.3,-706.4 -8056.8,-562.2 "/>
<path class="st2" d="M-8071.2-556.8h-425.6v-17.1c0-65,52.7-117.7,117.7-117.7h307.9V-556.8z"/>
<polygon class="st1" points="-8518.9,-553.3 -8060.7,-695.1 -8057.2,-550.9 "/>
<path class="st2" d="M-8071.2-546.3h-425.6v-17.1c0-65,52.7-117.7,117.7-117.7h307.9V-546.3z"/>
<polygon class="st1" points="-8518.7,-542.1 -8068.2,-736.6 -8064.8,-538.9 "/>
<path class="st2" d="M-8194.4-816.3h425.6v17.1c0,65-52.7,117.7-117.7,117.7h-307.9V-816.3z"/>
<polygon class="st1" points="-7746.7,-819.8 -8204.9,-677.9 -8208.4,-822.1 "/>
<path class="st2" d="M-8194-827.5h425.6v17.1c0,65-52.7,117.7-117.7,117.7H-8194V-827.5z"/>
<polygon class="st1" points="-7746.3,-831 -8204.5,-689.1 -8208,-833.3 "/>
<path class="st2" d="M-8194-838h425.6v17.1c0,65-52.7,117.7-117.7,117.7H-8194V-838z"/>
<polygon class="st1" points="-7746,-841.2 -8204.2,-699.3 -8207.7,-843.5 "/>
<path class="st2" d="M-8144.3-212.5h-425.6v-17.1c0-65,52.7-117.7,117.7-117.7h307.9V-212.5z"/>
<polygon class="st1" points="-8592,-209 -8133.8,-350.9 -8130.3,-206.7 "/>
<path class="st2" d="M-8144.7-201.3h-425.6v-17.1c0-65,52.7-117.7,117.7-117.7h307.9V-201.3z"/>
<polygon class="st1" points="-8592.3,-197.8 -8134.2,-339.6 -8130.7,-195.5 "/>
<path class="st2" d="M-8144.7-190.8h-425.6V-208c0-65,52.7-117.7,117.7-117.7h307.9V-190.8z"/>
<polygon class="st1" points="-8592.2,-187.3 -8143.3,-419.6 -8139.9,-183.4 "/>
<path class="st2" d="M-8267.9-459.8h425.6v17.1c0,65-52.7,117.7-117.7,117.7h-307.9V-459.8z"/>
<polygon class="st1" points="-7820.2,-464.3 -8278.4,-322.4 -8281.9,-466.6 "/>
<path class="st2" d="M-8267.5-471h425.6v17.1c0,65-52.7,117.7-117.7,117.7h-307.9V-471z"/>
<polygon class="st1" points="-7819.8,-475.5 -8278,-333.6 -8281.5,-477.8 "/>
<path class="st2" d="M-8267.5-481.5h425.6v17.1c0,65-52.7,117.7-117.7,117.7h-307.9V-481.5z"/>
<polygon class="st1" points="-7819.5,-485.4 -8269.7,-323.8 -8273.2,-488 "/>
<path class="st2" d="M-7110.3-579.5h-425.6v-17.1c0-65,52.7-117.7,117.7-117.7h307.9V-579.5z"/>
<polygon class="st1" points="-7558,-576 -7099.8,-717.9 -7096.3,-573.7 "/>
<path class="st2" d="M-7110.7-568.3h-425.6v-17.1c0-65,52.7-117.7,117.7-117.7h307.9V-568.3z"/>
<polygon class="st1" points="-7558.3,-564.8 -7100.2,-706.6 -7096.7,-562.5 "/>
<path class="st2" d="M-7110.7-557.8h-425.6V-575c0-65,52.7-117.7,117.7-117.7h307.9V-557.8z"/>
<polygon class="st1" points="-7558.2,-554.3 -7109.3,-786.6 -7105.9,-550.4 "/>
<path class="st2" d="M-7233.9-826.8h425.6v17.1c0,65-52.7,117.7-117.7,117.7h-307.9V-826.8z"/>
<polygon class="st1" points="-6786.2,-831.3 -7244.4,-689.4 -7247.9,-833.6 "/>
<path class="st2" d="M-7233.5-838h425.6v17.1c0,65-52.7,117.7-117.7,117.7h-307.9V-838z"/>
<polygon class="st1" points="-6785.8,-842.5 -7244,-700.6 -7247.5,-844.8 "/>
<path class="st2" d="M-7233.5-848.5h425.6v17.1c0,65-52.7,117.7-117.7,117.7h-307.9V-848.5z"/>
<polygon class="st1" points="-6785.5,-852.3 -7242.7,-688.3 -7246.2,-855 "/>
<path class="st2" d="M-8309.1-75.9h425.6v17.1c0,65-52.7,117.7-117.7,117.7h-307.9V-75.9z"/>
<polygon class="st1" points="-7861.4,-79.4 -8319.5,62.5 -8323,-81.7 "/>
<path class="st2" d="M-8308.7-87.1h425.6V-70c0,65-52.7,117.7-117.7,117.7h-307.9V-87.1z"/>
<polygon class="st1" points="-7861,-90.6 -8319.1,51.2 -8322.6,-92.9 "/>
<path class="st2" d="M-8308.7-97.6h425.6v17.1c0,65-52.7,117.7-117.7,117.7h-307.9V-97.6z"/>
<polygon class="st1" points="-7861.2,-100.9 -8310.6,148.5 -8314,-105 "/>
<path class="st2" d="M-8164.3,171.5h-425.6v-17.1c0-65,52.7-117.7,117.7-117.7h307.9V171.5z"/>
<polygon class="st1" points="-8612,175 -8153.8,33.1 -8150.3,177.3 "/>
<path class="st2" d="M-8164.7,182.7h-425.6v-17.1c0-65,52.7-117.7,117.7-117.7h307.9V182.7z"/>
<polygon class="st1" points="-8612.3,186.2 -8154.2,44.4 -8150.7,188.5 "/>
<path class="st2" d="M-8164.7,193.2h-425.6V176c0-65,52.7-117.7,117.7-117.7h307.9V193.2z"/>
<polygon class="st1" points="-8612.2,197.2 -8153.4,-8.3 -8149.9,200.6 "/>
<g>
	<g>
		<path class="st3" d="M-5093.5-1552.6h-532.8v-25.4c0-70.5,57.2-127.7,127.7-127.7h405V-1552.6z"/>
		<polygon class="st1" points="-5653.9,-1548.7 -5080.4,-1709.7 -5076.1,-1546 		"/>
		<path class="st3" d="M-5094-1539.9h-532.8v-28.6c0-68.8,55.8-124.6,124.6-124.6h408.2V-1539.9z"/>
		<polygon class="st1" points="-5654.4,-1535.9 -5080.9,-1696.9 -5076.5,-1533.3 		"/>
		<path class="st3" d="M-5094-1528h-532.8v-39.8c0-62.6,50.7-113.3,113.3-113.3h419.5V-1528z"/>
		<polygon class="st1" points="-5654.2,-1523.9 -5092.4,-1787.7 -5088.1,-1519.6 		"/>
		<path class="st3" d="M-5248.3-1833.3h532.8v49.3c0,57.3-46.5,103.8-103.8,103.8h-429V-1833.3z"/>
		<polygon class="st1" points="-4687.9,-1838.4 -5261.4,-1677.3 -5265.8,-1841 		"/>
		<path class="st3" d="M-5247.8-1846h532.8v33.7c0,65.9-53.4,119.4-119.4,119.4h-413.4V-1846z"/>
		<polygon class="st1" points="-4687.4,-1851.1 -5260.9,-1690.1 -5265.3,-1853.8 		"/>
		<path class="st3" d="M-5247.8-1857.9h532.8v12c0,77.9-63.2,141.1-141.1,141.1h-391.6V-1857.9z"/>
		<polygon class="st1" points="-4687,-1862.3 -5259.3,-1676.1 -5263.7,-1865.3 		"/>
	</g>
	<text transform="matrix(1.1461 0 0 1 -5587.1465 -1742.1558)" style="font-family:'MongolianBaiti'; font-size:123.0543px;">BILDTERAPI</text>
	<text transform="matrix(1.1461 0 0 1 -5394.9482 -1563.3037)" style="font-family:'MongolianBaiti'; font-size:119.3395px;">HUSET</text>
</g>
<g>
	<g>
		<path class="st4" d="M-3782-101.4h-276.8v-13.9c0-40.7,33-73.8,73.8-73.8h203V-101.4z"/>
		<polygon class="st1" points="-4073.1,-99.1 -3775.2,-191.3 -3772.9,-97.6 		"/>
		<path class="st4" d="M-3782.2-94H-4059V-108c0-40.7,33-73.8,73.8-73.8h203V-94z"/>
		<polygon class="st1" points="-4073.3,-91.8 -3775.4,-184 -3773.1,-90.3 		"/>
		<path class="st4" d="M-3782.2-87.2H-4059v-13.9c0-40.7,33-73.8,73.8-73.8h203V-87.2z"/>
		<polygon class="st1" points="-4073.2,-84.9 -3781.4,-236 -3779.1,-82.4 		"/>
		<path class="st4" d="M-3862.4-262.1h276.8v13.9c0,40.7-33,73.8-73.8,73.8h-203V-262.1z"/>
		<polygon class="st1" points="-3571.2,-265.1 -3869.2,-172.8 -3871.4,-266.6 		"/>
		<path class="st4" d="M-3862.1-269.5h276.8v13.9c0,40.7-33,73.8-73.8,73.8h-203V-269.5z"/>
		<polygon class="st1" points="-3571,-272.4 -3868.9,-180.1 -3871.2,-273.9 		"/>
		<path class="st4" d="M-3862.1-276.3h276.8v13.9c0,40.7-33,73.8-73.8,73.8l-203,0V-276.3z"/>
		<polygon class="st1" points="-3570.8,-278.8 -3868.1,-172.1 -3870.3,-280.5 		"/>
	</g>
	<text transform="matrix(1 0 0 1 -4009.5654 -207.2773)" style="font-family:'JuliusSansOne-Regular'; font-size:67.7719px;">BILDTERAPI</text>
	<text transform="matrix(1 0 0 1 -3932.9834 -101.543)" style="font-family:'JuliusSansOne-Regular'; font-size:67.7719px;">HUSET</text>
</g>
<g>
	<path class="st4" d="M-5412.1-96.3h-275.7v-13.6c0-40.7,33-73.8,73.8-73.8h202V-96.3z"/>
	<polygon class="st1" points="-5702.1,-94 -5405.3,-185.9 -5403,-92.5 	"/>
	<path class="st4" d="M-5412.3-89H-5688v-13.6c0-40.7,33-73.8,73.8-73.8h202V-89z"/>
	<polygon class="st1" points="-5702.3,-86.7 -5405.5,-178.6 -5403.3,-85.2 	"/>
	<path class="st4" d="M-5412.3-82.2H-5688v-13.6c0-40.7,33-73.8,73.8-73.8h202V-82.2z"/>
	<polygon class="st1" points="-5702.2,-79.9 -5411.5,-230.5 -5409.2,-77.4 	"/>
	<path class="st4" d="M-5492.2-256.5h275.7v13.6c0,40.7-33,73.8-73.8,73.8h-202V-256.5z"/>
	<polygon class="st1" points="-5202.1,-259.4 -5498.9,-167.5 -5501.2,-260.9 	"/>
	<path class="st4" d="M-5491.9-263.8h275.7v13.6c0,40.7-33,73.8-73.8,73.8h-202V-263.8z"/>
	<polygon class="st1" points="-5201.9,-266.7 -5498.7,-174.8 -5500.9,-268.2 	"/>
	<path class="st4" d="M-5491.9-270.5h275.7v13.6c0,40.7-33,73.8-73.8,73.8h-202V-270.5z"/>
	<polygon class="st1" points="-5201.7,-273 -5497.8,-166.8 -5500.1,-274.8 	"/>
</g>
<text transform="matrix(1 0 0 1 -5647.1104 -202.6523)" style="font-family:'RussoOne-Regular'; font-size:62.0578px;">BILDTERAPI</text>
<text transform="matrix(1 0 0 1 -5564.8613 -100.7189)" style="font-family:'RussoOne-Regular'; font-size:65.7805px;">HUSET</text>
<g>
	<g>
		<path class="st3" d="M-3735.9-1512.8h-577.6v-109.3c0-40.7,33-73.8,73.8-73.8h503.8V-1512.8z"/>
		<polygon class="st1" points="-4343.5,-1508.1 -3721.7,-1700.6 -3717,-1505 		"/>
		<path class="st3" d="M-3736.5-1497.6h-577.6v-109.3c0-40.7,33-73.8,73.8-73.8h503.8V-1497.6z"/>
		<polygon class="st1" points="-4344,-1492.9 -3722.3,-1685.4 -3717.5,-1489.7 		"/>
		<path class="st3" d="M-3736.5-1483.4h-577.6v-109.3c0-40.7,33-73.8,73.8-73.8h503.8V-1483.4z"/>
		<polygon class="st1" points="-4343.8,-1478.6 -3734.7,-1793.9 -3730.1,-1473.4 		"/>
		<path class="st3" d="M-3903.7-1848.4h577.6v109.3c0,40.7-33,73.8-73.8,73.8h-503.8V-1848.4z"/>
		<polygon class="st1" points="-3296.2,-1854.5 -3917.9,-1662 -3922.7,-1857.7 		"/>
		<path class="st3" d="M-3903.2-1863.7h577.6v109.3c0,40.7-33,73.8-73.8,73.8h-503.8V-1863.7z"/>
		<polygon class="st1" points="-3295.6,-1869.8 -3917.4,-1677.2 -3922.1,-1872.9 		"/>
		<path class="st3" d="M-3903.2-1877.9h577.6v109.3c0,40.7-33,73.8-73.8,73.8h-503.8V-1877.9z"/>
		<polygon class="st1" points="-3295.2,-1883.1 -3915.7,-1660.5 -3920.4,-1886.7 		"/>
	</g>
	<text transform="matrix(1 0 0 1 -4275.5903 -1751.0455)" style="font-family:'Adamina-Regular'; font-size:136.4771px;">BILDTERAPI</text>
	<text transform="matrix(1 0 0 1 -4086.0376 -1525.6482)" style="font-family:'Adamina-Regular'; font-size:136.4771px;">HUSET</text>
</g>
<g>
	<path class="st4" d="M-4047.6-877.1h-302.2v-22c0-40.7,33-73.8,73.8-73.8h228.4V-877.1z"/>
	<polygon class="st1" points="-4365.4,-874.6 -4040.1,-975.3 -4037.7,-873 	"/>
	<path class="st4" d="M-4047.8-869.1H-4350v-22c0-40.7,33-73.8,73.8-73.8h228.4V-869.1z"/>
	<polygon class="st1" points="-4365.7,-866.6 -4040.4,-967.3 -4037.9,-865 	"/>
	<path class="st4" d="M-4047.8-861.7H-4350v-22c0-40.7,33-73.8,73.8-73.8h228.4V-861.7z"/>
	<polygon class="st1" points="-4365.5,-859.1 -4046.9,-1024.1 -4044.5,-856.4 	"/>
	<path class="st4" d="M-4135.3-1052.6h302.2v22c0,40.7-33,73.8-73.8,73.8h-228.4V-1052.6z"/>
	<polygon class="st1" points="-3817.5,-1055.8 -4142.8,-955.1 -4145.3,-1057.5 	"/>
	<path class="st4" d="M-4135.1-1060.6h302.2v22c0,40.7-33,73.8-73.8,73.8h-228.4V-1060.6z"/>
	<polygon class="st1" points="-3817.2,-1063.8 -4142.5,-963.1 -4145,-1065.5 	"/>
	<path class="st4" d="M-4135.1-1068h302.2v22c0,40.7-33,73.8-73.8,73.8h-228.4V-1068z"/>
	<polygon class="st1" points="-3817,-1070.8 -4141.6,-954.3 -4144.1,-1072.7 	"/>
</g>
<text transform="matrix(1 0 0 1 -4302.1797 -991.0607)" style="font-family:'PaytoneOne-Regular'; font-size:70.9495px;">BILDTERAPI</text>
<text transform="matrix(1 0 0 1 -4218.7559 -884.4993)" style="font-family:'PaytoneOne-Regular'; font-size:75.9253px;">HUSET</text>
<g>
	<path class="st3" d="M-5167.4-891.2H-5662v-54.4c0-56.6,45.8-102.4,102.4-102.4h392.2V-891.2z"/>
	<polygon class="st1" points="-5687.7,-887.1 -5155.2,-1052 -5151.2,-884.4 	"/>
	<path class="st3" d="M-5167.8-878.1h-494.6v-48.3c0-59.9,48.5-108.4,108.4-108.4h386.2V-878.1z"/>
	<polygon class="st1" points="-5688.1,-874.1 -5155.7,-1039 -5151.6,-871.4 	"/>
	<path class="st3" d="M-5167.8-866h-494.6v-40.7c0-64.1,51.9-116,116-116h378.6V-866z"/>
	<polygon class="st1" points="-5687.9,-861.8 -5166.3,-1131.9 -5162.3,-857.4 	"/>
	<path class="st3" d="M-5311.1-1178.6h494.6v62c0,52.3-42.4,94.8-94.8,94.8h-399.8V-1178.6z"/>
	<polygon class="st1" points="-4790.8,-1183.8 -5323.2,-1018.9 -5327.3,-1186.5 	"/>
	<path class="st3" d="M-5310.6-1191.6h494.6v56.6c0,55.3-44.8,100.1-100.1,100.1h-394.5V-1191.6z"/>
	<polygon class="st1" points="-4790.3,-1196.8 -5322.8,-1032 -5326.8,-1199.6 	"/>
	<path class="st3" d="M-5310.6-1203.8h494.6v55c0,56.2-45.5,101.7-101.7,101.7h-392.9V-1203.8z"/>
	<polygon class="st1" points="-4790,-1208.3 -5321.3,-1017.7 -5325.3,-1211.4 	"/>
	<text transform="matrix(1 0 0 1 -5584.1704 -1077.7764)" style="font-family:'Marmelad-Regular'; font-size:116.1426px;">BILDTERAPI</text>
	<text transform="matrix(1 0 0 1 -5447.6104 -903.337)" style="font-family:'Marmelad-Regular'; font-size:124.2877px;">HUSET</text>
</g>
<g>
	<path class="st4" d="M-4607.8-75.9h-277.7v-14.2c0-40.7,33-73.8,73.8-73.8h203.9V-75.9z"/>
	<polygon class="st1" points="-4899.9,-73.7 -4600.9,-166.2 -4598.7,-72.1 	"/>
	<path class="st4" d="M-4608-68.6h-277.7v-14.2c0-40.7,33-73.8,73.8-73.8h203.9V-68.6z"/>
	<polygon class="st1" points="-4900.2,-66.3 -4601.2,-158.9 -4598.9,-64.8 	"/>
	<path class="st4" d="M-4608-61.8h-277.7V-76c0-40.7,33-73.8,73.8-73.8h203.9V-61.8z"/>
	<polygon class="st1" points="-4900,-59.4 -4607.2,-211.1 -4604.9,-57 	"/>
	<path class="st4" d="M-4688.4-237.3h277.7v14.2c0,40.7-33,73.8-73.8,73.8h-203.9V-237.3z"/>
	<polygon class="st1" points="-4396.3,-240.2 -4695.3,-147.6 -4697.6,-241.7 	"/>
	<path class="st4" d="M-4688.2-244.6h277.7v14.2c0,40.7-33,73.8-73.8,73.8h-203.9V-244.6z"/>
	<polygon class="st1" points="-4396.1,-247.5 -4695,-155 -4697.3,-249.1 	"/>
	<path class="st4" d="M-4688.2-251.4h277.7v14.2c0,40.7-33,73.8-73.8,73.8h-203.9V-251.4z"/>
	<polygon class="st1" points="-4395.9,-253.9 -4694.2,-146.9 -4696.5,-255.7 	"/>
</g>
<text transform="matrix(1 0 0 1 -4851.8086 -185.2939)" style="font-family:'Cantarell-Bold'; font-size:59.6531px;">BILDTERAPI</text>
<text transform="matrix(1 0 0 1 -4765.8242 -82.7441)" style="font-family:'Cantarell-Bold'; font-size:59.6531px;">HUSET</text>
<rect x="-2119.8" y="-763.9" class="st1" width="2.1" height="2.4"/>
<rect x="-2118.6" y="-761" class="st1" width="1.5" height="1.9"/>
<g>
	<g>
		<path class="st5" d="M-2159.8-870.2h-150.7v-7.2c0-19.9,16.2-36.1,36.1-36.1h114.6V-870.2z"/>
		<polygon class="st1" points="-2318.3,-869.1 -2156.1,-914.7 -2154.9,-868.4 		"/>
		<path class="st5" d="M-2159.9-866.6h-150.7v-7.2c0-19.9,16.2-36.1,36.1-36.1h114.6V-866.6z"/>
		<polygon class="st1" points="-2318.4,-865.5 -2156.2,-911 -2155,-864.8 		"/>
		<path class="st5" d="M-2159.9-863.3h-150.7v-7.2c0-19.9,16.2-36.1,36.1-36.1h114.6V-863.3z"/>
		<polygon class="st1" points="-2318.4,-862.1 -2159.5,-936.7 -2158.3,-860.9 		"/>
		<path class="st5" d="M-2203.6-949.6h150.7v2.5c0,22.5-18.3,40.8-40.8,40.8h-109.9V-949.6z"/>
		<polygon class="st1" points="-2045.1,-951.1 -2207.3,-905.5 -2208.5,-951.8 		"/>
		<path class="st5" d="M-2203.4-953.2h150.7v2.5c0,22.5-18.3,40.8-40.8,40.8h-109.9V-953.2z"/>
		<polygon class="st1" points="-2045,-954.7 -2207.1,-909.1 -2208.4,-955.4 		"/>
		<path class="st5" d="M-2203.4-956.6h150.7v2.5c0,22.5-18.3,40.8-40.8,40.8h-109.9V-956.6z"/>
		<polygon class="st1" points="-2044.9,-957.8 -2206.7,-905.2 -2207.9,-958.7 		"/>
	</g>
	
		<text transform="matrix(1.1461 0 0 1 -2299.4028 -923.8419)" class="st17" style="font-family:'MongolianBaiti'; font-size:34.799px;">BILDTERAPI</text>
	
		<text transform="matrix(1.1461 0 0 1 -2245.0522 -873.2618)" class="st17" style="font-family:'MongolianBaiti'; font-size:33.7485px;">HUSET</text>
</g>
<g>
	<g>
		<path class="st5" d="M-1811.5-459.3h-122.9v-5.3c0-18.6,15-33.6,33.6-33.6h89.3V-459.3z"/>
		<polygon class="st1" points="-1940.7,-458.3 -1808.4,-499.3 -1807.4,-457.6 		"/>
		<path class="st5" d="M-1811.6-456.1h-122.9v-5.3c0-18.6,15-33.6,33.6-33.6h89.3V-456.1z"/>
		<polygon class="st1" points="-1940.9,-455.1 -1808.6,-496 -1807.5,-454.4 		"/>
		<path class="st5" d="M-1811.6-453h-122.9v-5.3c0-18.6,15-33.6,33.6-33.6h89.3V-453z"/>
		<polygon class="st1" points="-1940.8,-452 -1811.2,-519.1 -1810.2,-450.9 		"/>
		<path class="st5" d="M-1847.2-530.7h122.9v4.5c0,19-15.4,34.5-34.5,34.5h-88.4V-530.7z"/>
		<polygon class="st1" points="-1717.9,-532 -1850.2,-491 -1851.2,-532.7 		"/>
		<path class="st5" d="M-1847.1-534h122.9v4.5c0,19-15.4,34.5-34.5,34.5h-88.4V-534z"/>
		<polygon class="st1" points="-1717.8,-535.3 -1850.1,-494.3 -1851.1,-535.9 		"/>
		<path class="st5" d="M-1847.1-537h122.9v4.5c0,19-15.4,34.5-34.5,34.5h-88.4V-537z"/>
		<polygon class="st1" points="-1717.7,-538 -1849.7,-490.7 -1850.7,-538.8 		"/>
	</g>
	
		<text transform="matrix(1 0 0 1 -1912.5337 -506.351)" class="st17" style="font-family:'JuliusSansOne-Regular'; font-size:30.0967px;">BILDTERAPI</text>
	
		<text transform="matrix(1 0 0 1 -1878.5249 -459.3925)" class="st17" style="font-family:'JuliusSansOne-Regular'; font-size:30.0967px;">HUSET</text>
</g>
<g>
	<path class="st5" d="M-2153.7-584.7h-121.5V-606c0-9.5,7.7-17.1,17.1-17.1h104.4V-584.7z"/>
	<polygon class="st1" points="-2281.5,-583.7 -2150.7,-624.2 -2149.7,-583 	"/>
	<path class="st5" d="M-2153.8-581.5h-121.5V-603c0-9.4,7.6-17,17-17h104.5V-581.5z"/>
	<polygon class="st1" points="-2281.6,-580.5 -2150.8,-621 -2149.8,-579.8 	"/>
	<path class="st5" d="M-2153.8-578.5h-121.5v-20.7c0-9.9,8-17.8,17.8-17.8h103.6V-578.5z"/>
	<polygon class="st1" points="-2281.6,-577.5 -2153.4,-643.8 -2152.5,-576.4 	"/>
	<path class="st5" d="M-2189-655.2h121.5v25.6c0,7.1-5.8,12.9-12.9,12.9H-2189V-655.2z"/>
	<polygon class="st1" points="-2061.2,-656.5 -2192,-616 -2193,-657.2 	"/>
	<path class="st5" d="M-2188.9-658.5h121.5v24.4c0,7.8-6.3,14.1-14.1,14.1h-107.4V-658.5z"/>
	<polygon class="st1" points="-2061.1,-659.7 -2191.9,-619.2 -2192.9,-660.4 	"/>
	<path class="st5" d="M-2188.9-661.4h121.5v22.5c0,8.8-7.2,16-16,16h-105.5V-661.4z"/>
	<polygon class="st1" points="-2061,-662.5 -2191.5,-615.7 -2192.5,-663.3 	"/>
</g>
<text transform="matrix(1 0 0 1 -2257.2749 -631.5228)" class="st17" style="font-family:'RussoOne-Regular'; font-size:27.3423px;">BILDTERAPI</text>
<text transform="matrix(1 0 0 1 -2221.0386 -586.6136)" class="st17" style="font-family:'RussoOne-Regular'; font-size:28.9825px;">HUSET</text>
<g>
	<g>
		<path class="st5" d="M-1881.8-856.3h-163.1v-35.3c0-9.1,7.4-16.4,16.4-16.4h146.7V-856.3z"/>
		<polygon class="st1" points="-2053.4,-854.9 -1877.8,-909.3 -1876.4,-854.1 		"/>
		<path class="st5" d="M-1881.9-852H-2045v-35.3c0-9.1,7.4-16.4,16.4-16.4h146.7V-852z"/>
		<polygon class="st1" points="-2053.5,-850.6 -1877.9,-905 -1876.6,-849.7 		"/>
		<path class="st5" d="M-1881.9-848H-2045v-35.3c0-9.1,7.4-16.4,16.4-16.4h146.7V-848z"/>
		<polygon class="st1" points="-2053.4,-846.6 -1881.4,-935.7 -1880.1,-845.1 		"/>
		<path class="st5" d="M-1929.2-951h163.1v35.3c0,9.1-7.4,16.4-16.4,16.4h-146.7V-951z"/>
		<polygon class="st1" points="-1757.6,-952.8 -1933.2,-898.4 -1934.5,-953.7 		"/>
		<path class="st5" d="M-1929-955.3h163.1v35.3c0,9.1-7.4,16.4-16.4,16.4H-1929V-955.3z"/>
		<polygon class="st1" points="-1757.5,-957.1 -1933,-902.7 -1934.4,-958 		"/>
		<path class="st5" d="M-1929-959.4h163.1v35.3c0,9.1-7.4,16.4-16.4,16.4H-1929V-959.4z"/>
		<polygon class="st1" points="-1757.4,-960.8 -1932.5,-898 -1933.9,-961.9 		"/>
	</g>
	<text transform="matrix(1 0 0 1 -2034.1807 -923.543)" class="st17" style="font-family:'Adamina-Regular'; font-size:38.5379px;">BILDTERAPI</text>
	
		<text transform="matrix(1 0 0 1 -1980.6558 -859.8936)" class="st17" style="font-family:'Adamina-Regular'; font-size:38.5379px;">HUSET</text>
</g>
<g>
	<path class="st5" d="M-1897.7-730.4h-106.7v-25.2c0-4.7,3.9-8.6,8.6-8.6h98.1V-730.4z"/>
	<polygon class="st1" points="-2010,-729.5 -1895.1,-765.1 -1894.2,-728.9 	"/>
	<path class="st5" d="M-1897.8-727.6h-106.7v-25.2c0-4.7,3.9-8.6,8.6-8.6h98.1V-727.6z"/>
	<polygon class="st1" points="-2010.1,-726.7 -1895.2,-762.3 -1894.3,-726.1 	"/>
	<path class="st5" d="M-1897.8-724.9h-106.7v-25.2c0-4.7,3.9-8.6,8.6-8.6h98.1V-724.9z"/>
	<polygon class="st1" points="-2010.1,-724.1 -1897.5,-782.3 -1896.7,-723.1 	"/>
	<path class="st5" d="M-1928.7-792.4h106.7v25.2c0,4.7-3.9,8.6-8.6,8.6h-98.1V-792.4z"/>
	<polygon class="st1" points="-1816.5,-793.5 -1931.4,-757.9 -1932.2,-794.1 	"/>
	<path class="st5" d="M-1928.7-795.2h106.7v25.2c0,4.7-3.9,8.6-8.6,8.6h-98.1V-795.2z"/>
	<polygon class="st1" points="-1816.4,-796.3 -1931.3,-760.8 -1932.2,-796.9 	"/>
	<path class="st5" d="M-1928.7-797.8h106.7v25.2c0,4.7-3.9,8.6-8.6,8.6h-98.1V-797.8z"/>
	<polygon class="st1" points="-1816.3,-798.8 -1931,-757.7 -1931.8,-799.5 	"/>
</g>
<text transform="matrix(1 0 0 1 -1987.6831 -770.6528)" class="st17" style="font-family:'PaytoneOne-Regular'; font-size:25.0634px;">BILDTERAPI</text>
<text transform="matrix(1 0 0 1 -1958.2163 -733.0103)" class="st17" style="font-family:'PaytoneOne-Regular'; font-size:26.8211px;">HUSET</text>
<g>
	<path class="st5" d="M-2146.7-732.7h-120.6v-24.1c0-7.8,6.3-14.1,14.1-14.1h106.5V-732.7z"/>
	<polygon class="st1" points="-2273.5,-731.7 -2143.7,-771.9 -2142.8,-731.1 	"/>
	<path class="st5" d="M-2146.8-729.5h-120.6v-24.1c0-7.8,6.3-14.1,14.1-14.1h106.5V-729.5z"/>
	<polygon class="st1" points="-2273.6,-728.6 -2143.9,-768.7 -2142.9,-727.9 	"/>
	<path class="st5" d="M-2146.8-726.6h-120.6v-24.1c0-7.8,6.3-14.1,14.1-14.1h106.5V-726.6z"/>
	<polygon class="st1" points="-2273.6,-725.6 -2146.4,-791.4 -2145.5,-724.5 	"/>
	<path class="st5" d="M-2181.7-802.8h120.6v24.1c0,7.8-6.3,14.1-14.1,14.1h-106.5V-802.8z"/>
	<polygon class="st1" points="-2054.9,-804 -2184.7,-763.9 -2185.7,-804.7 	"/>
	<path class="st5" d="M-2181.6-806h120.6v24.1c0,7.8-6.3,14.1-14.1,14.1h-106.5V-806z"/>
	<polygon class="st1" points="-2054.8,-807.2 -2184.6,-767 -2185.6,-807.9 	"/>
	<path class="st5" d="M-2181.6-808.9h120.6v24.1c0,7.8-6.3,14.1-14.1,14.1h-106.5V-808.9z"/>
	<polygon class="st1" points="-2054.7,-810 -2184.2,-763.5 -2185.2,-810.8 	"/>
	
		<text transform="matrix(1 0 0 1 -2248.3042 -778.2051)" class="st17" style="font-family:'Marmelad-Regular'; font-size:28.3111px;">BILDTERAPI</text>
	
		<text transform="matrix(1 0 0 1 -2215.0171 -735.6837)" class="st17" style="font-family:'Marmelad-Regular'; font-size:30.2966px;">HUSET</text>
</g>
<path class="st6" d="M-1727.4-567.3"/>
<path class="st6" d="M-1759-546.7l2.3-1.3c2.1-1.2,4.4-2,6.8-2.2c6.4-0.6,12.2,1.9,19.1,7.3l0.1,0.1c2.3,1.7,5.6,4.4,6.9,7l-0.9,0.4
	l-1.2-1.1c-1.2-1-2.6-1.8-4.1-2.3c-1.6-0.5-3-0.5-5.1,0.3c-0.6,0.2-1.2,0.5-1.8,0.8c-5.6,2.8-11.9,7-18.3,4.6l-3.6-1.9L-1759-546.7z
	"/>
<polygon class="st7" points="-1758.6,-535.1 -1767.5,-536.4 -1768,-545.6 -1759,-546.7 "/>
<path class="st6" d="M-1768.6-536.3l-142.4,5.1c-0.4,0-0.8-0.2-0.9-0.6l0,0c-0.2-0.6,0.2-1.2,0.8-1.2l142-12.5c0.5,0,1,0.3,1,0.9
	l0.4,7.4C-1767.6-536.8-1768-536.3-1768.6-536.3z"/>
<g>
	<g>
		<path class="st5" d="M-1825.8-319h-122.9v-5.3c0-18.6,15-33.6,33.6-33.6h89.3V-319z"/>
		<polygon class="st1" points="-1955.1,-318 -1822.8,-358.9 -1821.8,-317.3 		"/>
		<path class="st5" d="M-1825.9-315.7h-122.9v-5.3c0-18.6,15-33.6,33.6-33.6h89.3V-315.7z"/>
		<polygon class="st1" points="-1955.2,-314.7 -1822.9,-355.7 -1821.9,-314.1 		"/>
		<path class="st5" d="M-1825.9-312.7h-122.9v-5.3c0-18.6,15-33.6,33.6-33.6h89.3V-312.7z"/>
		<polygon class="st1" points="-1955.1,-311.7 -1825.5,-378.8 -1824.5,-310.6 		"/>
		<path class="st5" d="M-1861.5-390.4h122.9v4.5c0,19-15.4,34.5-34.5,34.5h-88.4V-390.4z"/>
		<polygon class="st1" points="-1732.2,-391.7 -1864.5,-350.7 -1865.5,-392.4 		"/>
		<path class="st5" d="M-1861.4-393.6h122.9v4.5c0,19-15.4,34.5-34.5,34.5h-88.4V-393.6z"/>
		<polygon class="st1" points="-1732.1,-394.9 -1864.4,-354 -1865.4,-395.6 		"/>
		<path class="st5" d="M-1861.4-396.7h122.9v4.5c0,19-15.4,34.5-34.5,34.5h-88.4V-396.7z"/>
		<polygon class="st1" points="-1732,-397.7 -1864,-350.4 -1865,-398.5 		"/>
	</g>
	
		<text transform="matrix(1 0 0 1 -1926.8672 -366.0176)" class="st17" style="font-family:'JuliusSansOne-Regular'; font-size:30.0967px;">BILDTERAPI</text>
	
		<text transform="matrix(1 0 0 1 -1892.8584 -319.0591)" class="st17" style="font-family:'JuliusSansOne-Regular'; font-size:30.0967px;">HUSET</text>
</g>
<path class="st6" d="M-1774.3-406.4l2.3-1.3c2.1-1.2,4.4-2,6.8-2.2c6.2-0.5,16.8-1,22.8,5.1c0.6,0.6,1.1,1.1,1.5,1.8l-0.1-0.1
	c0.7,0.6,1.2,1.3,1.5,2c1.7,3.8,1.4,5.7,1.5,5.6l-1.1,0.3l-2.3-2c-1.2-1-2.2-1.8-3.7-2.2c-1.6-0.5-2.8-0.3-4.9,0.4
	c-0.6,0.2-1.7,1.3-2.3,1.6c-5.6,2.8-11.9,7-18.3,4.6l-3.6-1.9L-1774.3-406.4z"/>
<polygon class="st7" points="-1773.9,-394.7 -1782.8,-396.1 -1783.3,-405.2 -1774.3,-406.4 "/>
<path class="st6" d="M-1782.9-396l-142.4,5.1c-0.4,0-0.8-0.2-0.9-0.6l0,0c-0.2-0.6,0.2-1.2,0.8-1.2l142-12.5c0.5,0,1,0.3,1,0.9
	l0.4,7.4C-1782-396.4-1782.4-396-1782.9-396z"/>
<g>
	<g>
		<path class="st5" d="M-1506.3-207h-122.9v-5.3c0-18.6,15-33.6,33.6-33.6l89.3,0V-207z"/>
		<polygon class="st1" points="-1635.6,-206 -1503.3,-246.9 -1502.3,-205.3 		"/>
		<path class="st5" d="M-1506.4-203.7h-122.9v-5.3c0-18.6,15-33.6,33.6-33.6h89.3V-203.7z"/>
		<polygon class="st1" points="-1635.7,-202.7 -1503.4,-243.7 -1502.4,-202.1 		"/>
		<path class="st5" d="M-1506.4-200.7h-122.9v-5.3c0-18.6,15-33.6,33.6-33.6h89.3V-200.7z"/>
		<polygon class="st1" points="-1635.6,-199.7 -1506,-266.8 -1505,-198.6 		"/>
		<path class="st5" d="M-1542-278.4h122.9v4.5c0,19-15.4,34.5-34.5,34.5h-88.4V-278.4z"/>
		<polygon class="st1" points="-1412.7,-279.7 -1545,-238.7 -1546,-280.4 		"/>
		<path class="st5" d="M-1541.9-281.6h122.9v4.5c0,19-15.4,34.5-34.5,34.5h-88.4V-281.6z"/>
		<polygon class="st1" points="-1412.6,-282.9 -1544.9,-242 -1545.9,-283.6 		"/>
		<path class="st5" d="M-1541.9-284.7h122.9v4.5c0,19-15.4,34.5-34.5,34.5h-88.4V-284.7z"/>
		<polygon class="st1" points="-1412.5,-285.7 -1544.5,-238.4 -1545.5,-286.5 		"/>
	</g>
	
		<text transform="matrix(1 0 0 1 -1607.3672 -254.0176)" class="st17" style="font-family:'JuliusSansOne-Regular'; font-size:30.0967px;">BILDTERAPI</text>
	
		<text transform="matrix(1 0 0 1 -1573.3584 -207.0591)" class="st17" style="font-family:'JuliusSansOne-Regular'; font-size:30.0967px;">HUSET</text>
</g>
<g>
	<g>
		<path class="st5" d="M-1584.8-463.3h-122.9v-5.3c0-18.6,15-33.6,33.6-33.6h89.3V-463.3z"/>
		<polygon class="st1" points="-1714.1,-462.3 -1581.8,-503.3 -1580.8,-461.6 		"/>
		<path class="st5" d="M-1584.9-460.1h-122.9v-5.3c0-18.6,15-33.6,33.6-33.6h89.3V-460.1z"/>
		<polygon class="st1" points="-1714.2,-459.1 -1581.9,-500 -1580.9,-458.4 		"/>
		<path class="st5" d="M-1584.9-457h-122.9v-5.3c0-18.6,15-33.6,33.6-33.6h89.3V-457z"/>
		<polygon class="st1" points="-1714.1,-456 -1584.5,-523.1 -1583.5,-454.9 		"/>
		<path class="st5" d="M-1620.5-534.7h122.9v4.5c0,19-15.4,34.5-34.5,34.5h-88.4V-534.7z"/>
		<polygon class="st1" points="-1491.2,-536 -1623.5,-495 -1624.5,-536.7 		"/>
		<path class="st5" d="M-1620.4-538h122.9v4.5c0,19-15.4,34.5-34.5,34.5h-88.4V-538z"/>
		<polygon class="st1" points="-1491.1,-539.3 -1623.4,-498.3 -1624.4,-539.9 		"/>
		<path class="st5" d="M-1620.4-541h122.9v4.5c0,19-15.4,34.5-34.5,34.5h-88.4V-541z"/>
		<polygon class="st1" points="-1491,-542 -1623,-494.7 -1624,-542.8 		"/>
	</g>
	
		<text transform="matrix(1 0 0 1 -1685.8672 -510.351)" class="st17" style="font-family:'JuliusSansOne-Regular'; font-size:30.0967px;">BILDTERAPI</text>
	
		<text transform="matrix(1 0 0 1 -1651.8584 -463.3925)" class="st17" style="font-family:'JuliusSansOne-Regular'; font-size:30.0967px;">HUSET</text>
</g>
<path class="st6" d="M-1500.8-571.3"/>
<path class="st8" d="M-1532.3-550.7l2.3-1.3c2.1-1.2,4.4-2,6.8-2.2c6.4-0.6,12.2,1.9,19.1,7.3l0.1,0.1c2.3,1.7,5.6,4.4,6.9,7
	l-0.9,0.4l-1.2-1.1c-1.2-1-2.6-1.8-4.1-2.3c-1.6-0.5-3-0.5-5.1,0.3c-0.6,0.2-1.2,0.5-1.8,0.8c-5.6,2.8-11.9,7-18.3,4.6l-3.6-1.9
	L-1532.3-550.7z"/>
<polygon class="st7" points="-1532.9,-539.1 -1541.8,-540.4 -1542.3,-549.6 -1533.3,-550.7 "/>
<path class="st6" d="M-1542.6-540.3l-139.7,7c-0.8,0-1.5-0.5-1.7-1.2l0,0c-0.3-1,0.4-2,1.4-2.1l139.4-13c0.9-0.1,1.7,0.6,1.8,1.5
	l0.3,6C-1541-541.1-1541.7-540.3-1542.6-540.3z"/>
<path class="st6" d="M-1443.5-291.6l-169.4,12.4c-1,0-1.8-0.7-1.9-1.7l0-0.7c-0.1-0.9,0.7-1.7,1.6-1.8l168.1-17.6L-1443.5-291.6z"/>
<path class="st9" d="M-1437.2-292.6l-6.7,0.9c-2.4,0.3-4.7-1.3-5.2-3.7l0,0c-0.5-2.6,1.4-5.1,4.1-5.4l5.4-0.6L-1437.2-292.6z"/>
<path class="st6" d="M-1419.5-283.2l-2.9-4.5c-1.9-3-5-5.1-8.4-5.8c-0.1,0-0.2,0-0.3-0.1c-2.2-0.4-6,1-6,1l-2.4-9
	c0,0,0.2-0.1,0.4-0.2l1.3-0.9c2.7-1.8,6-2.2,9-1.1c1.8,0.7,3.5,1.8,4.9,3.1c2.4,2.2,3.7,5.2,4.2,7.1l1.2,9.8
	C-1418.5-283.5-1419.5-283.1-1419.5-283.2z"/>
<g>
	<g>
		<g>
			<path class="st5" d="M-1248.6-213.3h-122.9v-5.3c0-18.6,15-33.6,33.6-33.6h89.3V-213.3z"/>
			<polygon class="st1" points="-1377.9,-212.3 -1245.6,-253.3 -1244.6,-211.6 			"/>
			<path class="st5" d="M-1248.7-210.1h-122.9v-5.3c0-18.6,15-33.6,33.6-33.6h89.3V-210.1z"/>
			<polygon class="st1" points="-1378,-209.1 -1245.7,-250 -1244.7,-208.4 			"/>
			<path class="st5" d="M-1248.7-207h-122.9v-5.3c0-18.6,15-33.6,33.6-33.6h89.3V-207z"/>
			<polygon class="st1" points="-1378,-206 -1248.4,-273.1 -1247.4,-204.9 			"/>
			<path class="st5" d="M-1284.3-284.7h122.9v4.5c0,19-15.4,34.5-34.5,34.5h-88.4V-284.7z"/>
			<polygon class="st1" points="-1155,-286 -1287.4,-245 -1288.4,-286.7 			"/>
			<path class="st5" d="M-1284.2-288h122.9v4.5c0,19-15.4,34.5-34.5,34.5h-88.4V-288z"/>
			<polygon class="st1" points="-1154.9,-289.3 -1287.2,-248.3 -1288.2,-289.9 			"/>
			<path class="st5" d="M-1284.2-291h122.9v4.5c0,19-15.4,34.5-34.5,34.5h-88.4V-291z"/>
			<polygon class="st1" points="-1154.9,-292 -1286.9,-244.7 -1287.9,-292.8 			"/>
		</g>
		
			<text transform="matrix(1 0 0 1 -1349.7007 -260.351)" class="st17" style="font-family:'JuliusSansOne-Regular'; font-size:30.0967px;">BILDTERAPI</text>
		
			<text transform="matrix(1 0 0 1 -1315.6919 -213.3925)" class="st17" style="font-family:'JuliusSansOne-Regular'; font-size:30.0967px;">HUSET</text>
	</g>
	<path class="st6" d="M-1185.8-297.9l-169.4,12.4c-1,0-1.8-0.7-1.9-1.7l0-0.7c-0.1-0.9,0.7-1.7,1.6-1.8l168.1-17.6L-1185.8-297.9z"
		/>
	<path class="st9" d="M-1179.5-298.9l-6.7,0.9c-2.4,0.3-4.7-1.3-5.2-3.7l0,0c-0.5-2.6,1.4-5.1,4.1-5.4l5.4-0.6L-1179.5-298.9z"/>
	<path class="st6" d="M-1161.8-289.5l-2.9-4.5c-1.9-3-5-5.1-8.4-5.8c-0.1,0-0.2,0-0.3-0.1c-2.2-0.4-6,1-6,1l-2.4-9
		c0,0,0.2-0.1,0.4-0.2l2.5-1.7c0.6-0.4,1.4-0.8,2.1-0.9c3.8-0.7,7.7,1.1,10.6,3.8c0.7,0.7,1.3,1.4,1.9,2.1c1.4,2,2.2,4.4,2.5,6.8
		l1,7.9C-1160.9-289.8-1161.8-289.5-1161.8-289.5z"/>
</g>
<g>
	<g>
		<path class="st10" d="M-873-184.1h-122.9v-5.3c0-18.6,15-33.6,33.6-33.6h89.3V-184.1z"/>
		<polygon class="st1" points="-1002.2,-183.1 -869.9,-224.1 -868.9,-182.5 		"/>
		<path class="st11" d="M-873.1-180.9H-996v-5.3c0-18.6,15-33.6,33.6-33.6h89.3V-180.9z"/>
		<polygon class="st1" points="-1002.4,-179.9 -870.1,-220.9 -869,-179.2 		"/>
		<path class="st12" d="M-873.1-177.9H-996v-5.3c0-18.6,15-33.6,33.6-33.6h89.3V-177.9z"/>
		<polygon class="st1" points="-1002.3,-176.8 -872.7,-244 -871.7,-175.7 		"/>
		<path class="st10" d="M-908.7-255.6h122.9v4.5c0,19-15.4,34.5-34.5,34.5h-88.4V-255.6z"/>
		<polygon class="st1" points="-779.4,-256.8 -911.7,-215.9 -912.7,-257.5 		"/>
		<path class="st11" d="M-908.6-258.8h122.9v4.5c0,19-15.4,34.5-34.5,34.5h-88.4V-258.8z"/>
		<polygon class="st1" points="-779.3,-260.1 -911.6,-219.1 -912.6,-260.8 		"/>
		<path class="st12" d="M-908.6-261.8h122.9v4.5c0,19-15.4,34.5-34.5,34.5h-88.4V-261.8z"/>
		<polygon class="st1" points="-779.2,-262.9 -911.2,-215.5 -912.2,-263.7 		"/>
	</g>
	
		<text transform="matrix(1 0 0 1 -974.0342 -231.1843)" class="st17" style="font-family:'JuliusSansOne-Regular'; font-size:30.0967px;">BILDTERAPI</text>
	
		<text transform="matrix(1 0 0 1 -940.0254 -184.2258)" class="st17" style="font-family:'JuliusSansOne-Regular'; font-size:30.0967px;">HUSET</text>
	<path class="st6" d="M-810.1-268.7l-169.4,12.4c-1,0-1.8-0.7-1.9-1.7l0-0.7c-0.1-0.9,0.7-1.7,1.6-1.8l168.1-17.6L-810.1-268.7z"/>
	<path class="st9" d="M-803.8-269.7l-6.7,0.9c-2.4,0.3-4.7-1.3-5.2-3.7v0c-0.5-2.6,1.4-5.1,4.1-5.4l5.4-0.6L-803.8-269.7z"/>
	<path class="st6" d="M-786.1-260.4l-2.9-4.5c-1.9-3-5-5.1-8.4-5.8c-0.1,0-0.2,0-0.3-0.1c-2.2-0.4-6,1-6,1l-2.4-9
		c0,0,0.2-0.1,0.4-0.2l2.5-1.7c0.6-0.4,1.4-0.8,2.1-0.9c3.8-0.7,7.7,1.1,10.6,3.8c0.7,0.7,1.3,1.4,1.9,2.1c1.4,2,2.2,4.4,2.5,6.8
		l1,7.9C-785.2-260.6-786.2-260.3-786.1-260.4z"/>
</g>
<g>
	<path class="st13" d="M130.5,61.3l0,0.7h49.8c17.9,0,32.5-13.8,33.9-31.3v0l-23.9,7.4v16.1h-1.4V38.6l-6,1.8
		c-0.4,1.1-1.1,2.1-2.3,3c-1.7,1.3-3.8,1.9-6.2,1.9c-0.1,0-0.2,0-0.3,0v-1c0.1,0,0.2,0,0.2,0c2,0,3.7-0.5,5.2-1.6
		c0.7-0.5,1.3-1.1,1.6-1.8l-8.2,2.6v10.7h-1.4V44l-7.8,2.4l3.3,7.9h-1.6l-3.1-7.4l-11.1,3.4l-1.7,4h-0.7l0,0.2c-1.2,0-2.2-0.2-3-0.6
		c-0.7-0.3-1.3-0.8-2-1.4L128,57.4l0.1,4.7h0.1L130.5,61.3z"/>
	<path class="st13" d="M5.1,99.6v0.6L28.3,93l46.1-23.9H38.1C20.7,69.1,6.5,82.6,5.1,99.6z"/>
	<path class="st13" d="M149.4,50.8l-4,1.2c0.9,0.7,1.8,1.2,2.9,1.4L149.4,50.8z"/>
	<path class="st13" d="M180.4,63.1h-49.8l0,2h49.7c15.3,0,28.3-10.2,32.5-24.2C207.8,53.9,195.1,63.1,180.4,63.1z"/>
	<path class="st13" d="M6.6,86.2c5.1-12.4,17.3-21.1,31.5-21.1h44.1l4.3-2.2H38.2C23.4,62.8,10.8,72.7,6.6,86.2z"/>
	<path class="st13" d="M6.4,89.7c5-12.6,17.3-21.6,31.7-21.6h38.2l3.9-2H38.1C23.2,66.1,10.5,76,6.4,89.7z"/>
	<path class="st13" d="M80.9,33.9c-1.8,0-3.4,0-4.8,0.2v19c1.3,0.2,3.1,0.2,5.4,0.2c2.8,0,5-0.7,6.7-2.2L88,36.5
		C86.1,34.7,83.7,33.9,80.9,33.9z"/>
	<polygon class="st13" points="213.6,25.3 214.3,25.3 214.3,25.1 	"/>
	<path class="st13" d="M214.3,27.5l-3.4,1.1l3.4,0c0-0.2,0-0.3,0-0.5V27.5z"/>
	<path class="st13" d="M180.2,68.3c15.2,0,28.2-10.1,32.5-24c-5.2,12.7-17.8,21.7-32.4,21.7h-49.7l0.1,2.2H180.2z"/>
	<path class="st13" d="M38.4,34.7c-0.9-0.6-1.9-0.9-3.1-0.9c-1.1,0-2.3,0-3.5,0.1v8.2c0.3,0,0.8,0,1.5,0c0.7,0,1.8,0.1,3.2,0.2
		c0.9-0.5,1.7-1.2,2.3-2.1c0.6-0.9,1-1.9,1-3S39.4,35.3,38.4,34.7z"/>
	<path class="st13" d="M203,14.9c-0.1,0-0.2,0-0.3-0.1c-2.2-0.4-5.8,0.9-5.9,1l0,0l0,0c0,0,0,0,0,0l0,0l-0.1,0l-6.3,0.9l0,0l-0.3,0
		l-0.1,0c-0.2,0-0.4,0-0.6,0c0,0,0,0,0,0L118.9,22l93.8,0.5l-1.2-1.9C209.5,17.7,206.5,15.6,203,14.9z"/>
	<polygon class="st13" points="8.4,102.4 5,102.3 5,103.4 	"/>
	<path class="st13" d="M33.9,43.4c-1,0-1.6,0-2,0V53c0.9,0.1,2.4,0.2,4.7,0.2c1.5,0,2.7-0.4,3.6-1.2c0.9-0.8,1.4-1.9,1.4-3.1
		s-0.5-2.4-1.4-3.3S38,44,36.4,43.6C35.7,43.5,34.8,43.4,33.9,43.4z"/>
	<path class="st14" d="M5.1,100.2L5.1,100.2l0-0.6C5.1,99.8,5.1,100,5.1,100.2z"/>
	<path class="st14" d="M38.2,62.8h48.3l1.9-1H38.2C19.4,61.8,4.1,77.1,4.1,96v0.6c0.3-3.6,1.1-7.1,2.5-10.4
		C10.8,72.7,23.4,62.8,38.2,62.8z"/>
	<polygon class="st1" points="128.2,62.1 130.6,62.1 130.5,61.3 	"/>
	<polygon class="st1" points="4,100.5 -1.8,102.3 4,102.3 4,102.2 	"/>
	<path class="st15" d="M6.4,89.7C10.5,76,23.2,66.1,38.1,66.1h42.2l1.9-1H38.1c-14.2,0-26.4,8.7-31.5,21.1
		c-1.3,3.2-2.2,6.7-2.5,10.4C4.1,97.4,4,98.3,4,99.2v1.3v1.7C4,97.8,4.9,93.6,6.4,89.7z"/>
	<path class="st1" d="M91.3,69.3v-0.2l2.4-0.8h37l-0.1-2.2H99.9l2.8-1h27.9l0-2h-22.2l2.8-1h16.9l-0.1-4.7l15.8-4.9
		c-0.1-0.1-0.1-0.1-0.2-0.2c-0.7-0.7-2.4-3-5.2-6.7c-2,0-3.8-0.1-5.4-0.2v8.8h-1.4V32.8c1.9-0.1,3.5-0.2,4.8-0.2
		c2,0,3.7,0.5,5.1,1.6c1.3,1.1,2,2.5,2,4.5c0,1.3-0.4,2.5-1.1,3.6c-0.8,1.1-1.6,2-2.6,2.7c0.7,1,1.7,2.2,2.8,3.7
		c1.1,1.4,1.8,2.3,2.1,2.7c0.3,0.3,0.5,0.5,0.8,0.7l4-1.2l7.6-18.2h0.8l5.8,13.8l7.8-2.4V32.9c1.7-0.2,3.3-0.2,4.8-0.2
		c2.1,0,3.8,0.5,5.1,1.5c1.3,1,1.9,2.5,1.9,4.4c0,0.7-0.1,1.3-0.3,1.9l6-1.8v-5.8h1.4v5.4l23.9-7.4l0,0c0.1-0.7,0.1-1.4,0.1-2.2
		l-3.4,0l3.4-1.1v-0.3v-1.8l-0.7,0l0.7-0.3l0,0l-1.7-2.5L118.9,22l-30.5,2.2l0,0.5l-0.4,0l0.1,3.2l-0.2,0l0.2,6.7
		c0.4,0.3,0.9,0.6,1.3,1c2.2,2.1,3.3,4.9,3.3,8.4c0,1.8-0.3,3.4-0.9,4.7c-0.6,1.4-1.4,2.5-2.4,3.3c-0.3,0.2-0.6,0.5-1,0.7l0.2,9.1
		l-0.1,0.1l-1.9,1l-4.3,2.2l-1.9,1l-3.9,2l-1.9,1L28.3,93l-23.2,7.2l0,0c0,0.7-0.1,1.4-0.1,2v0.1l3.4,0L5,103.4v0.6v1l-1,0.5V105
		v-1.3l-5.9,1.8l5.9,0l-5.8,3l130.6,1.1l-0.1-3.5l2.7,0l-0.1-3.2l0.2,0l0-1.8h-0.7V79.7h0.2l-0.3-10.4H91.3z M91.9,99.1
		c-1.4-1.6-2.1-3.9-2.1-6.7V79.7h1.4v12.7c0,5.3,2.3,7.9,7,7.9c4.6,0,7-2.6,7-7.9V79.7h1.4v12.7c0,2.9-0.7,5.1-2.1,6.8
		c-1.4,1.6-3.5,2.5-6.3,2.5S93.3,100.8,91.9,99.1z M124.1,80.4l-0.5,1.2c-1.5-0.6-2.9-0.9-4.4-0.9c-2.9,0-4.4,1.1-4.4,3.3
		c0,0.9,0.3,1.8,1,2.6s1.5,1.5,2.4,2.2s1.9,1.3,2.8,1.9s1.7,1.5,2.4,2.4c0.7,0.9,1,1.9,1,3c0,1.8-0.6,3.2-1.8,4.1
		c-1.2,0.9-2.9,1.4-5.1,1.4c-2.2,0-4-0.6-5.5-1.7l0.7-1.1c1.4,0.9,3,1.4,4.8,1.4c1.7,0,3-0.3,4-1c0.9-0.7,1.4-1.7,1.4-3
		c0-0.9-0.3-1.8-1-2.6c-0.7-0.8-1.5-1.5-2.4-2.2c-0.9-0.7-1.9-1.3-2.8-2c-0.9-0.7-1.7-1.5-2.4-2.4c-0.7-0.9-1-2-1-3
		c0-1.4,0.5-2.6,1.6-3.4c1.1-0.8,2.5-1.2,4.3-1.2C120.9,79.3,122.6,79.7,124.1,80.4z M102.1,54.3V34h-7.3v-1.3h16V34h-7.3v20.3
		H102.1z M117,43.2V53h8.9v1.3h-10.3V32.7h10V34H117v7.9h7.7v1.2H117z M64.4,79.7h1.4v9.5h14.8v-9.5h1.4v21.5h-1.4V90.4H65.9v10.8
		h-1.4V79.7z"/>
	<path class="st16" d="M4,105.6l1-0.5v-1v-0.6v-1.1v-0.1c0-0.7,0-1.4,0.1-2c0-0.2,0-0.4,0-0.6c1.3-17,15.6-30.5,33-30.5h36.3l1.9-1
		H38.1c-14.4,0-26.7,8.9-31.7,21.6C4.9,93.6,4,97.8,4,102.2v0.1v1.4v1.3V105.6z"/>
	<path class="st14" d="M180.2,69.3h-49.5h-37l-2.4,0.8v0.2h39.4h49.5c19.3,0,35-15.7,35-35v-0.6c-0.3,3.7-1.1,7.3-2.5,10.6
		C208.4,59.2,195.5,69.3,180.2,69.3z"/>
	<polygon class="st14" points="214.2,30.7 214.2,30.7 214.2,30.7 	"/>
	<path class="st1" d="M161.7,45.6l-3.3-8c-0.7-1.5-1.1-2.4-1.1-2.6c0,0-0.1,0.1-0.1,0.4c-0.3,0.9-0.6,1.6-0.8,2.2l-3.3,8H161.7z"/>
	<polygon class="st1" points="221.1,28.6 215.3,28.6 215.3,30.4 	"/>
	<path class="st1" d="M180.1,35c-1-0.8-2.4-1.1-4.1-1.1c-0.9,0-2,0-3.2,0.1v9.5l8.2-2.6c0.4-0.7,0.6-1.5,0.6-2.3
		C181.6,37,181.1,35.8,180.1,35z"/>
	<polygon class="st1" points="152.6,46.8 151.1,50.3 162.2,46.8 162.2,46.8 	"/>
	<path class="st15" d="M212.9,40.9c-4.2,14-17.2,24.2-32.5,24.2h-49.7h-27.9l-2.8,1h30.7h49.7c14.6,0,27.1-9,32.4-21.7
		c1.4-3.3,2.2-6.9,2.5-10.6c0.1-0.9,0.1-1.8,0.1-2.7v-0.7v-1.8v-0.5C215.3,32.6,214.5,36.9,212.9,40.9z"/>
	<polygon class="st1" points="215.3,27.2 221.2,25.3 215.3,25.3 215.3,26.1 	"/>
	<path class="st1" d="M91,44c0-3.1-1-5.5-2.9-7.4c0,0-0.1-0.1-0.1-0.1L88.4,51c0,0,0.1,0,0.1-0.1C90.2,49.4,91,47.1,91,44z"/>
	<polygon class="st16" points="215.3,24.7 215.3,24.7 215.3,24.7 	"/>
	<path class="st16" d="M214.3,25.1L214.3,25.1L214.3,25.1l0,0.2v1.8v0.3v0.6c0,0.2,0,0.3,0,0.5c0,0.7,0,1.4-0.1,2.2c0,0,0,0,0,0
		c-1.4,17.5-16,31.3-33.9,31.3h-49.8h-2.4h-0.1h-16.9l-2.8,1h22.2h49.8c14.8,0,27.4-9.2,32.5-22.1c1.6-4,2.5-8.3,2.5-12.8v-0.9v-1
		v-0.8v-0.6C215.3,24.8,214.3,25.1,214.3,25.1z"/>
	<path class="st1" d="M141.9,38.6c0-1.5-0.5-2.7-1.5-3.5c-1-0.8-2.4-1.2-4.1-1.2c-0.9,0-2,0-3.2,0.1v10.2c1.6,0.1,3.1,0.2,4.5,0.2
		c0.9,0,1.8-0.6,2.8-1.7C141.4,41.5,141.9,40.1,141.9,38.6z"/>
	<polygon class="st1" points="215.3,24.7 215.3,24.7 221.3,22.6 215.1,22.5 	"/>
	<path class="st17" d="M40.3,40.5c0.6-1,0.9-2,0.9-3.2c0-1.5-0.6-2.7-1.8-3.5c-1.2-0.8-2.6-1.2-4.2-1.2c-1.6,0-3.2,0.1-4.8,0.2v21.4
		c1.9,0.2,3.9,0.2,5.9,0.2c2.1,0,3.7-0.5,4.9-1.5c1.2-1,1.8-2.4,1.8-4.3c0-1.3-0.5-2.6-1.4-3.6c-1-1.1-2.2-1.8-3.6-2.3
		C38.9,42.2,39.7,41.5,40.3,40.5z M40.2,45.5c0.9,0.9,1.4,2,1.4,3.3s-0.5,2.3-1.4,3.1c-0.9,0.8-2.1,1.2-3.6,1.2
		c-2.2,0-3.8,0-4.7-0.2v-9.6c0.4,0,1,0,2,0c1,0,1.8,0.1,2.6,0.2C38,44,39.3,44.6,40.2,45.5z M36.5,42.3c-1.4-0.1-2.5-0.2-3.2-0.2
		c-0.7,0-1.2,0-1.5,0v-8.2c1.2-0.1,2.4-0.1,3.5-0.1c1.1,0,2.2,0.3,3.1,0.9c0.9,0.6,1.4,1.4,1.4,2.5s-0.3,2.1-1,3
		C38.2,41.2,37.4,41.9,36.5,42.3z"/>
	<rect x="49.4" y="32.7" class="st17" width="1.4" height="21.5"/>
	<polygon class="st17" points="58.7,32.7 58.7,54.3 70.1,54.3 70.1,52.9 60.2,52.9 60.2,32.7 	"/>
	<path class="st17" d="M89.4,52c1-0.8,1.8-1.9,2.4-3.3c0.6-1.4,0.9-3,0.9-4.7c0-3.5-1.1-6.3-3.3-8.4c-0.4-0.4-0.8-0.7-1.3-1
		c-2-1.4-4.3-2.1-7-2.1c-2.1,0-4.2,0.1-6.2,0.2v21.5c2.6,0.2,4.9,0.3,6.9,0.3c2.6,0,4.9-0.6,6.8-1.8C88.7,52.5,89,52.3,89.4,52z
		 M88.4,51c-1.7,1.5-3.9,2.2-6.7,2.2c-2.3,0-4.1-0.1-5.4-0.2V34c1.3-0.1,2.9-0.2,4.8-0.2c2.8,0,5.2,0.9,7.1,2.6c0,0,0.1,0.1,0.1,0.1
		C90,38.4,91,40.9,91,44S90.2,49.4,88.4,51C88.4,50.9,88.4,50.9,88.4,51z"/>
	<polygon class="st17" points="103.6,34 110.9,34 110.9,32.7 94.9,32.7 94.9,34 102.1,34 102.1,54.3 103.6,54.3 	"/>
	<polygon class="st17" points="124.7,41.9 117,41.9 117,34 125.5,34 125.5,32.7 115.5,32.7 115.5,54.3 125.8,54.3 125.8,53 117,53 
		117,43.2 124.7,43.2 	"/>
	<path class="st17" d="M148.7,54.5l0-0.2h0.7l1.7-4l1.4-3.5h9.6l0,0l3.1,7.4h1.6l-3.3-7.9l-5.8-13.8H157l-7.6,18.2l-1.1,2.6
		c-1-0.2-2-0.7-2.9-1.4c-0.3-0.2-0.5-0.5-0.8-0.7c-0.3-0.4-1-1.2-2.1-2.7c-1.1-1.4-2-2.6-2.8-3.7c0.9-0.7,1.8-1.6,2.6-2.7
		c0.8-1.1,1.1-2.3,1.1-3.6c0-1.9-0.7-3.4-2-4.5c-1.3-1.1-3-1.6-5.1-1.6c-1.3,0-2.9,0.1-4.8,0.2v21.4h1.4v-8.8
		c1.6,0.1,3.4,0.2,5.4,0.2c2.7,3.8,4.5,6,5.2,6.7c0.1,0.1,0.1,0.1,0.2,0.2c0.6,0.6,1.3,1.1,2,1.4C146.5,54.3,147.5,54.5,148.7,54.5z
		 M153.1,45.6l3.3-8c0.3-0.6,0.5-1.3,0.8-2.2c0.1-0.2,0.1-0.3,0.1-0.4c0,0.2,0.4,1.1,1.1,2.6l3.3,8H153.1z M137.5,44.4
		c-1.4,0-2.9,0-4.5-0.2V34c1.2-0.1,2.3-0.1,3.2-0.1c1.7,0,3.1,0.4,4.1,1.2c1,0.8,1.5,2,1.5,3.5s-0.5,2.9-1.5,4
		C139.4,43.8,138.4,44.4,137.5,44.4z"/>
	<path class="st17" d="M172.8,54.3V43.5V34c1.2-0.1,2.3-0.1,3.2-0.1c1.7,0,3.1,0.4,4.1,1.1c1,0.8,1.5,2,1.5,3.6
		c0,0.9-0.2,1.6-0.6,2.3c-0.4,0.7-0.9,1.3-1.6,1.8c-1.5,1-3.2,1.6-5.2,1.6c-0.1,0-0.1,0-0.2,0v1c0.1,0,0.2,0,0.3,0
		c2.4,0,4.5-0.6,6.2-1.9c1.1-0.8,1.9-1.8,2.3-3c0.2-0.6,0.3-1.2,0.3-1.9c0-2-0.6-3.5-1.9-4.4c-1.3-1-3-1.5-5.1-1.5
		c-1.6,0-3.2,0.1-4.8,0.2V44v10.3H172.8z"/>
	<polygon class="st17" points="190.3,54.3 190.3,38.1 190.3,32.7 188.9,32.7 188.9,38.6 188.9,54.3 	"/>
	<polygon class="st17" points="64.4,101.2 65.9,101.2 65.9,90.4 80.7,90.4 80.7,101.2 82.1,101.2 82.1,79.7 80.7,79.7 80.7,89.1 
		65.9,89.1 65.9,79.7 64.4,79.7 	"/>
	<path class="st17" d="M104.6,99.1c1.4-1.6,2.1-3.9,2.1-6.8V79.7h-1.4v12.7c0,5.3-2.3,7.9-7,7.9c-4.6,0-7-2.6-7-7.9V79.7h-1.4v12.7
		c0,2.8,0.7,5.1,2.1,6.7s3.5,2.5,6.3,2.5S103.2,100.8,104.6,99.1z"/>
	<path class="st17" d="M113.3,84c0,1.1,0.3,2.1,1,3c0.7,0.9,1.5,1.8,2.4,2.4c0.9,0.7,1.9,1.3,2.8,2c0.9,0.7,1.7,1.4,2.4,2.2
		c0.7,0.8,1,1.7,1,2.6c0,1.3-0.5,2.3-1.4,3c-0.9,0.7-2.2,1-4,1c-1.7,0-3.3-0.5-4.8-1.4l-0.7,1.1c1.5,1.1,3.4,1.7,5.5,1.7
		c2.2,0,3.8-0.5,5.1-1.4c1.2-0.9,1.8-2.3,1.8-4.1c0-1.1-0.3-2.1-1-3c-0.7-0.9-1.5-1.7-2.4-2.4s-1.9-1.3-2.8-1.9s-1.7-1.4-2.4-2.2
		s-1-1.7-1-2.6c0-2.2,1.5-3.3,4.4-3.3c1.4,0,2.9,0.3,4.4,0.9l0.5-1.2c-1.5-0.7-3.2-1.1-5-1.1c-1.8,0-3.2,0.4-4.3,1.2
		C113.8,81.4,113.3,82.5,113.3,84z"/>
	<polygon class="st17" points="130.8,79.7 130.8,101.2 131.5,101.2 141.1,101.2 141.1,100 132.2,100 132.2,90.1 140,90.1 140,88.9 
		132.2,88.9 132.2,81 140.8,81 140.8,79.7 131,79.7 	"/>
	<polygon class="st17" points="143.6,81 150.9,81 150.9,101.2 152.3,101.2 152.3,81 159.6,81 159.6,79.7 143.6,79.7 	"/>
	<polygon class="st6" points="190.3,16.7 190.1,16.7 190.4,16.7 	"/>
	<path class="st6" d="M118.9,22l70.5-5.2c-2.3,0-4.2-1.6-4.6-3.9c-0.2-1.3,0.1-2.6,0.9-3.7c0.8-1,1.9-1.7,3.2-1.8l0,0L20.7,25
		c-0.9,0.1-1.6,0.9-1.6,1.8l0,0.7c0.1,1,0.9,1.7,1.9,1.7l67.3-4.9L118.9,22z"/>
	<path class="st1" d="M185.8,9.3c-0.8,1-1.1,2.3-0.8,3.5c0.4,2.4,2.6,4,5,3.6l6.6-0.9L194.2,7l-5.3,0.5
		C187.6,7.7,186.5,8.3,185.8,9.3z"/>
	<polygon class="st18" points="196.8,15.8 196.8,15.8 196.8,15.8 	"/>
	<path class="st18" d="M185.6,9.2c-0.8,1.1-1.1,2.4-0.9,3.7c0.4,2.3,2.4,3.9,4.6,3.9c0,0,0,0,0,0c0.2,0,0.4,0,0.6,0l0.1,0l0.3,0
		l6.3-0.9l0.1,0l-2.4-9c0,0,0,0,0,0l0,0l-5.5,0.6c0,0-0.1,0-0.1,0C187.5,7.5,186.3,8.2,185.6,9.2z M194.2,7l2.3,8.6l-6.6,0.9
		c-2.4,0.3-4.6-1.3-5-3.6c-0.2-1.2,0.1-2.5,0.8-3.5c0.8-1,1.9-1.6,3.1-1.8L194.2,7z"/>
	<path class="st6" d="M196.8,15.8L196.8,15.8C196.8,15.8,196.8,15.8,196.8,15.8C196.8,15.8,196.8,15.8,196.8,15.8
		c0.2-0.1,3.8-1.4,6-1c0.1,0,0.2,0,0.3,0.1c3.5,0.7,6.5,2.8,8.4,5.8l1.2,1.9l1.7,2.5l0,0c0,0.1,0.9-0.3,1-0.3c0,0,0,0,0,0l0,0l0,0
		l-0.3-2.2l-0.7-5.7c-0.3-2.4-1.1-4.8-2.5-6.8c-0.5-0.8-1.2-1.5-1.9-2.1c-2.9-2.7-6.8-4.5-10.6-3.8c-0.8,0.1-1.5,0.5-2.1,0.9
		l-2.5,1.7c-0.2,0.1-0.4,0.2-0.4,0.2c0,0,0,0,0,0L196.8,15.8z"/>
</g>
</svg>
