<?xml version="1.0" encoding="utf-8"?>
<!-- Generator: Adobe Illustrator 19.1.0, SVG Export Plug-In . SVG Version: 6.00 Build 0)  -->
<svg version="1.1" id="Layer_1" xmlns="http://www.w3.org/2000/svg" xmlns:xlink="http://www.w3.org/1999/xlink" x="0px" y="0px"
	 viewBox="0 0 211.3 101.7" style="enable-background:new 0 0 211.3 101.7;" xml:space="preserve">
<style type="text/css">
	.st0{fill:none;stroke:#000000;stroke-width:4;stroke-miterlimit:10;}
	.st1{fill:#FFFFFF;}
	.st2{fill:none;stroke:#010202;stroke-width:3;stroke-miterlimit:10;}
	.st3{fill:none;stroke:#010202;stroke-width:4;stroke-miterlimit:10;}
	.st4{fill:none;stroke:#010202;stroke-width:2;stroke-miterlimit:10;}
	.st5{fill:none;stroke:#010202;stroke-miterlimit:10;}
	.st6{fill:#010202;}
	.st7{fill:none;stroke:#7C7C7C;stroke-width:0.25;stroke-miterlimit:10;}
	.st8{display:none;fill:#010202;}
	.st9{fill:#FFFFFF;stroke:#525151;stroke-width:0.25;stroke-miterlimit:10;}
	.st10{fill:none;}
	.st11{fill:#E52420;}
	.st12{fill:#66B32E;}
	.st13{fill:#2A4B9B;}
	.st14{fill:#1E1E1C;}
	.st15{fill:#525151;}
</style>
<g>
	<path class="st10" d="M210.3,24.7c0-0.2,0-0.3,0-0.5v-0.6l-3.4,1.1L210.3,24.7z"/>
	<polygon class="st10" points="1,98.4 1,99.5 4.4,98.5 	"/>
	<polygon class="st10" points="210.3,21.4 210.3,21.2 209.6,21.4 	"/>
	<path class="st10" d="M70.4,65.2H34.1c-17.4,0-31.7,13.5-33,30.5v0.6l23.2-7.2L70.4,65.2z"/>
	<path class="st10" d="M176.3,59.2h-49.8l0,2h49.7c15.3,0,28.3-10.2,32.5-24.2C203.8,50,191.1,59.2,176.3,59.2z"/>
	<path class="st10" d="M34.1,61.2h44.1l4.3-2.2H34.2c-14.9,0-27.5,9.8-31.6,23.4C7.7,69.9,19.9,61.2,34.1,61.2z"/>
	<path class="st10" d="M144.3,49.5l1.1-2.6l-4,1.2C142.3,48.9,143.2,49.3,144.3,49.5z"/>
	<path class="st10" d="M34.1,64.2h38.2l3.9-2H34.1c-14.9,0-27.6,10-31.7,23.6C7.4,73.2,19.7,64.2,34.1,64.2z"/>
	<path class="st10" d="M186.3,34.2v16.1h-1.4V34.7l-6,1.8c-0.4,1.1-1.1,2.1-2.3,3c-1.7,1.3-3.8,1.9-6.2,1.9c-0.1,0-0.2,0-0.3,0v-1
		c0.1,0,0.2,0,0.2,0c2,0,3.7-0.5,5.2-1.6c0.7-0.5,1.3-1.1,1.6-1.8l-8.2,2.6v10.7h-1.4V40.1l-7.8,2.4l3.3,7.9h-1.6l-3.1-7.4
		l-11.1,3.4l-1.7,4h-0.7l0,0.2c-1.2,0-2.2-0.2-3-0.6c-0.7-0.3-1.3-0.8-2-1.4L124,53.5l0.1,4.7h0.1l2.4-0.7l0,0.7h49.8
		c17.9,0,32.5-13.8,33.9-31.4v0L186.3,34.2z"/>
	<path class="st10" d="M34.4,30.8c-0.9-0.6-1.9-0.9-3.1-0.9c-1.1,0-2.3,0-3.5,0.1v8.2c0.3,0,0.8,0,1.5,0c0.7,0,1.8,0.1,3.2,0.2
		c0.9-0.5,1.7-1.2,2.3-2.1c0.6-0.9,1-1.9,1-3C35.8,32.3,35.4,31.4,34.4,30.8z"/>
	<path class="st10" d="M76.9,30c-1.8,0-3.4,0.1-4.8,0.2v19c1.3,0.2,3.1,0.2,5.4,0.2c2.8,0,5-0.7,6.7-2.2L84,32.6
		C82.1,30.8,79.7,30,76.9,30z"/>
	<path class="st10" d="M29.9,39.5c-1,0-1.6,0-2,0v9.6c0.9,0.1,2.4,0.2,4.7,0.2c1.5,0,2.7-0.4,3.6-1.2s1.4-1.9,1.4-3.1
		s-0.5-2.4-1.4-3.3c-0.9-0.9-2.2-1.6-3.7-1.9C31.7,39.6,30.8,39.5,29.9,39.5z"/>
	<path class="st10" d="M176.3,62.2h-49.7l0.1,2.2h49.5c15.2,0,28.2-10.1,32.5-24C203.5,53.2,190.9,62.2,176.3,62.2z"/>
	<path class="st10" d="M207.5,16.7c-1.9-3-5-5.1-8.4-5.8c-0.1,0-0.2,0-0.3-0.1c-2.2-0.4-5.8,0.9-5.9,1l0,0l0,0c0,0,0,0,0,0l0,0
		l-0.1,0l-6.3,0.9l0,0l-0.3,0l-0.1,0c-0.2,0-0.4,0-0.6,0c0,0,0,0,0,0l-70.5,5.2l93.8,0.5L207.5,16.7z"/>
	<path class="st11" d="M34.2,58.9h48.3l1.9-1H34.2c-18.8,0-34.1,15.3-34.1,34.1v0.6c0.3-3.6,1.1-7.1,2.5-10.4
		C6.8,68.8,19.4,58.9,34.2,58.9z"/>
	<path class="st11" d="M1.1,95.7c0,0.2,0,0.4,0,0.6l0,0V95.7z"/>
	<path class="st12" d="M34.1,62.2h42.2l1.9-1H34.1c-14.2,0-26.4,8.7-31.5,21.1c-0.7,2.2-1.1,4.5-1.3,6.9C1.6,88,2,86.9,2.4,85.8
		C6.5,72.1,19.2,62.2,34.1,62.2z"/>
	<path class="st12" d="M0.1,95.7v-3C0.1,93.5,0,94.4,0,95.3v1.3l0,0C0.1,96.3,0.1,96,0.1,95.7z"/>
	<path class="st12" d="M1.2,89.2c0.2-2.4,0.7-4.7,1.3-6.9C1.2,85.5,0.4,89,0.1,92.7v3C0.3,93.5,0.7,91.3,1.2,89.2z"/>
	<path class="st12" d="M0.1,96.6L0.1,96.6l0,1.7C0,97.7,0,97.2,0.1,96.6z"/>
	<polygon class="st1" points="1,101.1 1,101.1 1,101.2 	"/>
	<path class="st13" d="M34.1,65.2h36.3l1.9-1H34.1c-14.4,0-26.7,8.9-31.7,21.6c-0.7,2.2-1.1,4.5-1.3,6.9v3
		C2.5,78.7,16.7,65.2,34.1,65.2z"/>
	<path class="st13" d="M1.1,92.7C1.1,93.6,1,94.4,1,95.3v1l0.1,0c0-0.2,0-0.4,0-0.6V92.7z"/>
	<path class="st13" d="M1,97.9v0.4C1,98.2,1,98,1,97.9L1,97.9z"/>
	<path class="st13" d="M1.1,96.3L1.1,96.3L1,97.9h0C1,97.4,1,96.8,1.1,96.3z"/>
	<path class="st13" d="M1.1,92.7c0.2-2.4,0.6-4.7,1.3-6.9C2,86.9,1.6,88,1.2,89.2c-0.1,0.9-0.1,1.9-0.1,2.8V92.7z"/>
	<path class="st13" d="M0.1,96.6L0.1,96.6l0.1-0.9C0.1,96,0.1,96.3,0.1,96.6z"/>
	<polygon class="st13" points="1,98.4 0,98.4 0,99.8 1,99.5 	"/>
	<path class="st13" d="M1,95.3c0-0.9,0-1.7,0.1-2.6v-0.6c0-1,0-1.9,0.1-2.8c-0.6,2.1-1,4.2-1.1,6.5v0.9L1,96.3V95.3z"/>
	<path class="st13" d="M1,98.3v-0.4H0.1v-1.3l-0.1,0c0,0.6,0,1.1,0,1.7v0.1l1,0V98.3z"/>
	<polygon class="st13" points="0.1,96.6 0.1,97.9 1,97.9 1,96.3 	"/>
	<polygon class="st13" points="1,101.1 0,101.1 0,101.7 1,101.2 	"/>
	<polygon class="st13" points="1,101.1 1,100.1 1,99.5 0,99.8 0,101.1 	"/>
	<polygon class="st1" points="99.2,61.2 99.2,61.2 114.4,61.2 114.4,61.2 	"/>
	<polygon class="st1" points="114.4,61.2 123,61.2 123,61.2 114.4,61.2 	"/>
	<rect x="123" y="61.2" class="st1" width="0.9" height="0"/>
	<polygon class="st1" points="0,101.7 0,101.7 0,101.7 	"/>
	<path class="st11" d="M176.2,64.4h-49.5l0,1h49.5c19.3,0,35-15.7,35-35v-0.6c-0.3,3.7-1.1,7.3-2.5,10.6
		C204.4,54.3,191.5,64.4,176.2,64.4z"/>
	<polygon class="st11" points="126.5,64.4 126.5,65.4 126.7,65.4 126.7,64.4 	"/>
	<polygon class="st11" points="124.2,65.4 126.5,65.4 126.5,64.4 124.2,64.4 	"/>
	<polygon class="st11" points="87.5,65.2 87.3,65.3 87.3,65.4 100.7,65.4 101.4,65.2 	"/>
	<polygon class="st11" points="101.4,65.2 100.7,65.4 111.1,65.4 111.8,65.2 	"/>
	<polygon class="st11" points="124,64.4 124,65.4 124.2,65.4 124.2,64.4 	"/>
	<polygon class="st11" points="111.1,65.4 122.9,65.4 122.9,65.2 111.8,65.2 	"/>
	<rect x="123.9" y="64.4" class="st11" width="0.1" height="1"/>
	<polygon class="st11" points="89.7,64.4 87.5,65.2 101.4,65.2 103.9,64.4 	"/>
	<polygon class="st11" points="101.4,65.2 111.8,65.2 114.3,64.4 103.9,64.4 	"/>
	<polygon class="st11" points="111.8,65.2 122.9,65.2 122.9,64.4 114.3,64.4 	"/>
	<polygon class="st11" points="122.9,64.4 122.9,65.2 122.9,65.4 123,65.4 123,64.4 	"/>
	<rect x="123" y="64.4" class="st11" width="0.9" height="1"/>
	<polygon class="st1" points="98.7,61.2 99.2,61.2 99.2,61.2 98.7,61.2 	"/>
	<path class="st12" d="M211.3,24.7L211.3,24.7l0-0.5C211.3,24.3,211.3,24.5,211.3,24.7z"/>
	<path class="st12" d="M176.3,61.2h-49.7l0,1h49.7c14.6,0,27.1-9,32.4-21.7c0.7-2.3,1.2-4.6,1.4-7.1c-0.3,1.2-0.7,2.4-1.2,3.6
		C204.7,51,191.7,61.2,176.3,61.2z"/>
	<path class="st12" d="M211.2,26.9v3c0.1-0.9,0.1-1.8,0.1-2.7v-0.7l-0.1,0C211.2,26.6,211.2,26.7,211.2,26.9z"/>
	<polygon class="st12" points="124.8,61.2 124.1,61.2 124.1,61.4 	"/>
	<polygon class="st12" points="126.5,62.2 126.7,62.2 126.6,61.2 126.4,61.2 	"/>
	<polygon class="st12" points="124.8,61.2 124.1,61.4 124.1,62.2 126.5,62.2 126.4,61.2 	"/>
	<polygon class="st12" points="96,62.2 111.2,62.2 111.2,62.2 96,62.2 	"/>
	<polygon class="st12" points="124,61.4 124.1,61.4 124.1,61.2 124,61.2 	"/>
	<polygon class="st12" points="121.5,62.2 121.6,62.2 111.2,62.2 111.2,62.2 	"/>
	<polygon class="st12" points="123.9,61.2 123.9,61.5 124,61.4 124,61.2 	"/>
	<polygon class="st12" points="96,62.2 111.2,62.2 114.4,61.2 99.2,61.2 	"/>
	<polygon class="st12" points="114.4,61.2 111.2,62.2 121.6,62.2 123,61.7 123,61.2 	"/>
	<polygon class="st12" points="123,61.7 123.9,61.5 123.9,61.2 123,61.2 	"/>
	<polygon class="st12" points="124,61.4 124,62.2 124.1,62.2 124.1,61.4 	"/>
	<polygon class="st12" points="122.9,62.2 122.9,62.2 121.6,62.2 121.5,62.2 	"/>
	<polygon class="st12" points="123.9,62.2 124,62.2 124,61.4 123.9,61.5 	"/>
	<polygon class="st12" points="122.9,62.2 122.9,62.2 123,62.2 123,61.7 121.6,62.2 	"/>
	<polygon class="st12" points="123,61.7 123,62.2 123.9,62.2 123.9,61.5 	"/>
	<path class="st12" d="M210.1,33.4c-0.2,2.4-0.7,4.8-1.4,7.1c1.4-3.3,2.2-6.9,2.5-10.6v-3C211.1,29.1,210.7,31.3,210.1,33.4z"/>
	<path class="st12" d="M211.3,26.5L211.3,26.5l0.1-1.8h0C211.3,25.3,211.3,25.9,211.3,26.5z"/>
	<polygon class="st12" points="95.9,62.2 96,62.2 96,62.2 96,62.2 	"/>
	<polygon class="st12" points="96,62.2 96,62.2 99.2,61.2 98.7,61.2 	"/>
	<path class="st13" d="M210.3,21.2L210.3,21.2L210.3,21.2l0,0.2l1,0v-0.6C211.3,20.9,210.3,21.3,210.3,21.2z"/>
	<path class="st13" d="M210.3,24.7v-0.5C210.3,24.3,210.3,24.5,210.3,24.7L210.3,24.7z"/>
	<polygon class="st13" points="124.2,58.2 124.1,58.2 124.1,58.2 	"/>
	<path class="st13" d="M176.3,58.2h-49.8l0,1h49.8c14.8,0,27.4-9.2,32.5-22.1c0.7-2.3,1.1-4.7,1.3-7.2v-3
		C208.9,44.3,194.2,58.2,176.3,58.2z"/>
	<polygon class="st13" points="211.3,20.8 211.3,20.8 211.3,20.8 	"/>
	<polygon class="st13" points="124.1,58.2 124.1,59.2 126.6,59.2 126.6,58.2 124.2,58.2 	"/>
	<polygon class="st13" points="120.9,59.2 121.7,58.9 106.5,58.9 105.7,59.2 	"/>
	<polygon class="st13" points="124,58.2 124.1,58.2 124.1,58.2 124,58.2 	"/>
	<polygon class="st13" points="109,58.2 106.5,58.9 121.7,58.9 124,58.2 124,58.2 	"/>
	<polygon class="st13" points="124,58.2 124,59.2 124.1,59.2 124.1,58.2 	"/>
	<polygon class="st13" points="123,59.2 123,58.9 121.7,58.9 120.9,59.2 	"/>
	<polygon class="st13" points="123,58.9 123,59.2 124,59.2 124,58.2 121.7,58.9 	"/>
	<path class="st13" d="M210.2,26.8v3c0.1-0.9,0.1-1.7,0.1-2.6v-0.4L210.2,26.8C210.2,26.8,210.2,26.8,210.2,26.8z"/>
	<path class="st13" d="M210.3,25.5L210.3,25.5l0-0.8h0C210.3,24.9,210.3,25.2,210.3,25.5z"/>
	<polygon class="st13" points="104.4,59.2 105.7,59.2 106.5,58.9 105,58.9 	"/>
	<polygon class="st13" points="105,58.9 106.5,58.9 109,58.2 107.2,58.2 	"/>
	<path class="st13" d="M210.2,26.8l0.1,0v-1.3h0C210.3,25.9,210.3,26.4,210.2,26.8z"/>
	<path class="st13" d="M210.2,29.8c-0.2,2.5-0.6,4.9-1.3,7.2c0.5-1.2,0.9-2.4,1.2-3.6c0.1-1,0.1-2,0.1-3V29.8z"/>
	<path class="st13" d="M210.3,24.2v0.5l1,0c0-0.2,0-0.3,0-0.5v-0.9l-1,0.3V24.2z"/>
	<path class="st13" d="M211.2,26.9c0-0.1,0-0.2,0-0.4l0,0V26.9z"/>
	<path class="st13" d="M210.3,26.8v0.4c0,0.9,0,1.8-0.1,2.6v0.6c0,1-0.1,2-0.1,3c0.6-2.1,1-4.3,1.1-6.6v-0.3L210.3,26.8z"/>
	<path class="st13" d="M210.3,25.5h0.9v1l0,0c0-0.6,0.1-1.2,0.1-1.8l-1,0V25.5z"/>
	<polygon class="st13" points="211.2,26.5 211.2,25.5 210.3,25.5 210.3,26.8 	"/>
	<polygon class="st13" points="210.3,22.2 211.3,22.2 211.3,21.4 210.3,21.4 	"/>
	<polygon class="st13" points="210.3,22.2 210.3,23.2 210.3,23.6 211.3,23.3 211.3,22.2 	"/>
	<polygon class="st1" points="88.9,61.2 88.8,61.2 98.7,61.2 98.7,61.2 	"/>
	<polygon class="st1" points="95.9,62.2 96,62.2 88.3,62.2 88.3,62.2 	"/>
	<rect x="87.4" y="62.2" class="st1" width="0.9" height="0"/>
	<polygon class="st1" points="88.4,61.2 88.4,61.2 88.8,61.2 88.9,61.2 	"/>
	<polygon class="st1" points="210.3,21.2 210.3,21.2 210.3,21.2 	"/>
	<path class="st14" d="M36.3,36.6c0.6-1,0.9-2,0.9-3.2c0-1.5-0.6-2.7-1.8-3.5s-2.6-1.2-4.2-1.2c-1.6,0-3.2,0.1-4.8,0.2v21.4
		c1.9,0.2,3.9,0.2,5.9,0.2s3.7-0.5,4.9-1.5s1.8-2.4,1.8-4.3c0-1.3-0.5-2.6-1.4-3.6c-1-1.1-2.2-1.8-3.6-2.3
		C34.9,38.3,35.7,37.6,36.3,36.6z M36.2,41.6c0.9,0.9,1.4,2,1.4,3.3s-0.5,2.3-1.4,3.1s-2.1,1.2-3.6,1.2c-2.2,0-3.8-0.1-4.7-0.2v-9.6
		c0.4,0,1,0,2,0s1.8,0.1,2.6,0.2C34,40.1,35.3,40.7,36.2,41.6z M32.5,38.4c-1.4-0.1-2.5-0.2-3.2-0.2c-0.7,0-1.2,0-1.5,0V30
		c1.2-0.1,2.4-0.1,3.5-0.1c1.1,0,2.2,0.3,3.1,0.9c0.9,0.6,1.4,1.5,1.4,2.5c0,1.1-0.3,2.1-1,3C34.2,37.3,33.4,38,32.5,38.4z"/>
	<rect x="45.4" y="28.8" class="st14" width="1.4" height="21.5"/>
	<polygon class="st14" points="54.7,28.8 54.7,50.4 66.1,50.4 66.1,49 56.2,49 56.2,28.8 	"/>
	<path class="st14" d="M77.6,49.3c-2.3,0-4.1-0.1-5.4-0.2v-19c1.3-0.1,2.9-0.2,4.8-0.2c2.8,0,5.2,0.9,7.1,2.7l0-1.9
		c-2-1.4-4.3-2.1-7-2.1c-2.1,0-4.2,0.1-6.2,0.2v21.5c2.6,0.2,4.9,0.3,6.9,0.3c2.6,0,4.9-0.6,6.8-1.8l0-1.7
		C82.6,48.6,80.4,49.3,77.6,49.3z"/>
	<path class="st14" d="M84.5,46.9c0,0-0.1,0.1-0.1,0.1c0,0-0.1,0-0.1,0.1l0,1.7c0.1,0,0.1-0.1,0.2-0.1L84.5,46.9z"/>
	<path class="st14" d="M84.1,32.7C84.1,32.7,84.2,32.8,84.1,32.7l0-1.9c-0.1,0-0.1-0.1-0.2-0.1l0,1.9C84,32.6,84.1,32.7,84.1,32.7z"
		/>
	<path class="st14" d="M84.6,31.1c-0.1-0.1-0.3-0.2-0.4-0.3l0,2c0.1,0.1,0.3,0.3,0.4,0.4L84.6,31.1z"/>
	<path class="st14" d="M84.9,46.6c-0.1,0.1-0.2,0.2-0.3,0.3l0,1.8c0.1-0.1,0.2-0.2,0.3-0.2L84.9,46.6z"/>
	<path class="st14" d="M87,40.1c0,2.8-0.7,5-2.1,6.5l0,1.9c0.1-0.1,0.3-0.2,0.4-0.3c0.8-0.7,1.4-1.5,2-2.5V34.5
		c-0.5-1-1.2-1.9-2.1-2.7c-0.2-0.2-0.4-0.4-0.7-0.6l0,2.1C86.2,35,87,37.3,87,40.1z"/>
	<path class="st14" d="M88.4,38.1V42c0.1-0.6,0.1-1.3,0.1-2C88.6,39.4,88.5,38.8,88.4,38.1z"/>
	<path class="st14" d="M87.4,34.7c0-0.1-0.1-0.2-0.1-0.2v11.2c0-0.1,0.1-0.2,0.1-0.2V34.7z"/>
	<path class="st14" d="M88.4,42v-3.9c0-0.2-0.1-0.5-0.1-0.7v5.4C88.4,42.5,88.4,42.3,88.4,42z"/>
	<path class="st14" d="M88.3,42.8v-5.4c-0.2-1-0.5-1.9-0.9-2.7v10.7c0.1-0.2,0.2-0.4,0.3-0.6C88,44.2,88.2,43.5,88.3,42.8z"/>
	<polygon class="st14" points="99.6,30.1 106.9,30.1 106.9,28.8 90.9,28.8 90.9,30.1 98.1,30.1 98.1,50.4 99.1,50.4 99.6,50.1 	"/>
	<polygon class="st14" points="99.6,50.1 99.1,50.4 99.6,50.4 	"/>
	<polygon class="st14" points="112.9,39.3 120.6,39.3 120.7,39.2 120.7,38 112.9,38 112.9,30.1 121.5,30.1 121.5,28.8 111.5,28.8 
		111.5,43.9 112.9,43.2 	"/>
	<polygon class="st14" points="121.8,50.4 121.8,49.1 112.9,49.1 112.9,43.2 111.5,43.9 111.5,50.4 	"/>
	<polygon class="st14" points="120.7,39.3 120.7,39.2 120.6,39.3 	"/>
	<path class="st14" d="M144.3,49.5c-1-0.2-2-0.7-2.9-1.4l-1.6,0.5c0.6,0.6,1.3,1.1,2,1.4c0.8,0.4,1.8,0.5,3,0.6l0-0.2h-0.8
		L144.3,49.5z"/>
	<polygon class="st14" points="129,50.4 129,50.3 128.9,50.4 	"/>
	<path class="st14" d="M140.6,47.4c-0.2-0.2-0.4-0.5-0.8-1l-1.5,0.5c0.5,0.7,1,1.2,1.2,1.5c0.1,0.1,0.1,0.1,0.2,0.2l1.6-0.5
		C141.1,47.9,140.9,47.7,140.6,47.4z"/>
	<polygon class="st14" points="128.9,50.4 129,50.3 129,48.8 127.6,49.2 127.6,50.4 	"/>
	<path class="st14" d="M138.4,47l1.5-0.5c-0.2-0.2-0.4-0.5-0.7-0.8l-1.5,0.5C137.9,46.4,138.2,46.7,138.4,47z"/>
	<path class="st14" d="M129,41.5c1.6,0.1,3.4,0.2,5.4,0.2c1.3,1.8,2.4,3.3,3.3,4.4l1.5-0.5c-0.2-0.3-0.4-0.6-0.7-0.9
		c-1.1-1.4-2-2.6-2.8-3.7c0.9-0.7,1.8-1.6,2.6-2.7s1.1-2.3,1.1-3.6c0-1.9-0.7-3.4-2-4.5s-3-1.6-5.1-1.6c-1.3,0-2.9,0.1-4.8,0.2v20.3
		l1.4-0.4V41.5z M129,30.1c1.2-0.1,2.3-0.1,3.2-0.1c1.7,0,3.1,0.4,4.1,1.2s1.5,2,1.5,3.5c0,1.5-0.5,2.9-1.5,4s-1.9,1.7-2.8,1.7
		c-1.4,0-2.9-0.1-4.5-0.2V30.1z"/>
	<path class="st14" d="M144.3,49.5c0.2,0,0.3,0.1,0.5,0.1l0,0.7h0.7l1.7-4l-1.8,0.5L144.3,49.5z"/>
	<polygon class="st14" points="161.3,50.4 162.9,50.4 159.6,42.5 158.2,42.9 	"/>
	<polygon class="st14" points="146.6,44 145.4,46.9 147.1,46.4 148.3,43.4 	"/>
	<polygon class="st14" points="157.1,40.3 157.7,41.7 153.2,41.7 149.7,42.9 158.2,42.9 158.2,42.9 159.6,42.5 158.5,39.8 	"/>
	<polygon class="st14" points="157.1,40.3 158.5,39.8 158.4,39.7 157,40.1 	"/>
	<polygon class="st14" points="148.3,43.4 148.6,42.9 149.7,42.9 153.2,41.7 151.9,41.7 146.9,43.2 146.6,44 	"/>
	<path class="st14" d="M149.1,41.7l3.3-8c0.3-0.6,0.5-1.3,0.8-2.2c0.1-0.2,0.1-0.3,0.1-0.4c0,0.2,0.3,1.1,1.1,2.6l2.7,6.4l1.4-0.4
		l-4.6-11H153l-6.1,14.5l5-1.6H149.1z"/>
	<path class="st14" d="M144.3,49.5l-0.3,0.8h0.8l0-0.7C144.6,49.6,144.4,49.6,144.3,49.5z"/>
	<polygon class="st14" points="167.4,50.4 168.8,50.4 168.8,39.7 167.4,40.1 	"/>
	<path class="st14" d="M175.4,38.9c-1.5,1-3.2,1.6-5.2,1.6c-0.1,0-0.1,0-0.2,0v1c0.1,0,0.2,0,0.3,0c2.4,0,4.5-0.6,6.2-1.9
		c1.1-0.8,1.9-1.8,2.3-3l-1.8,0.6C176.7,37.8,176.1,38.4,175.4,38.9z"/>
	<polygon class="st14" points="167.4,36.9 167.4,40.1 168.8,39.7 168.8,36.4 	"/>
	<path class="st14" d="M179.1,33.3l-1.5,0.5c0.1,0.3,0.1,0.7,0.1,1c0,0.9-0.2,1.6-0.6,2.3l1.8-0.6c0.2-0.6,0.3-1.2,0.3-1.9
		C179.2,34.1,179.1,33.7,179.1,33.3z"/>
	<path class="st14" d="M177.5,33.7l1.5-0.5c-0.1-0.3-0.1-0.6-0.2-0.8l-1.5,0.5C177.4,33.2,177.5,33.5,177.5,33.7z"/>
	<polygon class="st14" points="168.8,36.4 168.8,36.1 167.4,36.6 167.4,36.9 	"/>
	<path class="st14" d="M168.8,30.1c1.2-0.1,2.3-0.1,3.2-0.1c1.7,0,3.1,0.4,4.1,1.1c0.6,0.4,1,1.1,1.3,1.9l1.5-0.5
		c-0.3-0.9-0.8-1.7-1.6-2.3c-1.3-1-3-1.5-5.1-1.5c-1.6,0-3.2,0.1-4.8,0.2v7.6l1.4-0.5V30.1z"/>
	<polygon class="st14" points="184.8,50.4 186.3,50.4 186.3,34.2 184.8,34.7 	"/>
	<polygon class="st14" points="184.8,31.5 184.8,34.7 186.3,34.2 186.3,31 	"/>
	<polygon class="st14" points="186.3,31 186.3,29.8 184.8,30.3 184.8,31.5 	"/>
	<polygon class="st14" points="186.3,28.8 184.8,28.8 184.8,30.3 186.3,29.8 	"/>
	<polygon class="st14" points="61.9,75.8 60.4,75.8 60.4,77.9 61.9,77.5 	"/>
	<polygon class="st14" points="60.4,77.9 60.4,81.1 61.9,80.7 61.9,77.5 	"/>
	<polygon class="st14" points="76.7,76.1 77.6,75.8 76.7,75.8 	"/>
	<polygon class="st14" points="77.6,75.8 76.7,76.1 76.7,85.3 61.9,85.3 61.9,80.7 60.4,81.1 60.4,96.9 61.9,96.9 61.9,86.5 
		76.7,86.5 76.7,96.9 78.1,96.9 78.1,75.8 	"/>
	<rect x="76.7" y="96.9" class="st14" width="1.4" height="0.4"/>
	<rect x="60.4" y="96.9" class="st14" width="1.4" height="0.4"/>
	<path class="st14" d="M100.5,95.2c1.4-1.6,2.1-3.9,2.1-6.8V75.8h-1.4v12.7c0,5.3-2.3,7.9-7,7.9c-4.6,0-7-2.6-7-7.9V75.8h-1.4v12.7
		c0,2.8,0.7,5.1,2.1,6.7c0.6,0.7,1.4,1.3,2.3,1.7h8.1C99.2,96.5,99.9,95.9,100.5,95.2z"/>
	<path class="st14" d="M94.2,97.7c1.6,0,2.9-0.3,4.1-0.8h-8.1C91.3,97.4,92.6,97.7,94.2,97.7z"/>
	<path class="st14" d="M120.5,92.1c0-1.1-0.3-2.1-1-3c-0.7-0.9-1.5-1.7-2.4-2.4s-1.9-1.3-2.8-1.9c-0.9-0.6-1.7-1.4-2.4-2.2
		s-1-1.7-1-2.6c0-2.2,1.5-3.3,4.4-3.3c1.4,0,2.9,0.3,4.4,0.9l0.5-1.2c-1.5-0.7-3.2-1.1-5-1.1s-3.2,0.4-4.3,1.3
		c-1.1,0.8-1.6,2-1.6,3.4c0,1.1,0.3,2.1,1,3c0.7,0.9,1.5,1.8,2.4,2.4s1.9,1.3,2.8,2c0.9,0.7,1.7,1.4,2.4,2.2c0.7,0.8,1,1.7,1,2.6
		c0,1.3-0.5,2.3-1.4,3c-0.9,0.7-2.2,1-4,1s-3.3-0.5-4.8-1.4l-0.7,1.1c0.5,0.4,1,0.6,1.6,0.9h8c0.4-0.2,0.7-0.4,1-0.6
		C119.9,95.3,120.5,94,120.5,92.1z"/>
	<path class="st14" d="M113.6,97.7c1.6,0,3-0.3,4-0.8h-8C110.8,97.4,112.1,97.7,113.6,97.7z"/>
	<polygon class="st14" points="137.1,97.3 137.1,96.1 128.2,96.1 128.2,86.2 136,86.2 136,85 128.2,85 128.2,77.1 136.8,77.1 
		136.8,75.8 127,75.8 127.5,97.3 	"/>
	<polygon class="st14" points="127.3,97.3 127.5,97.3 127,75.8 126.8,75.8 	"/>
	<polygon class="st14" points="126.8,97.3 127.3,97.3 126.8,75.8 126.8,75.8 	"/>
	<polygon class="st14" points="139.6,77.1 146.9,77.1 146.9,97.3 148.3,97.3 148.3,77.1 155.6,77.1 155.6,75.8 139.6,75.8 	"/>
	<polygon class="st6" points="186.3,12.8 186.1,12.8 186.3,12.8 	"/>
	<path class="st6" d="M114.9,18.1l70.5-5.2c-2.3,0-4.2-1.6-4.6-3.9c-0.2-1.3,0.1-2.6,0.9-3.7c0.8-1,1.9-1.7,3.2-1.8l0,0L16.7,21.1
		c-0.9,0.1-1.6,0.9-1.6,1.8l0,0.7c0.1,1,0.9,1.7,1.9,1.7l67.3-4.9l-0.1-2.4L114.9,18.1z"/>
	<polygon class="st6" points="87.4,19.2 87.4,20.1 99.1,19.2 	"/>
	<polygon class="st6" points="96.1,18.6 96.1,19.5 107.7,18.6 	"/>
	<polygon class="st6" points="105.1,17.9 105.1,18.8 116.7,17.9 	"/>
	<polygon class="st6" points="82.3,19.6 82.3,20.5 93.9,19.6 	"/>
	<path class="st1" d="M192.5,11.7l-2.3-8.6l-5.3,0.5c0,0-0.1,0-0.1,0l1.5,8.8L192.5,11.7z"/>
	<path class="st1" d="M181.8,5.5c-0.8,1-1.1,2.3-0.8,3.5c0.4,2.4,2.7,4,5,3.6l0.4,0l-1.5-8.8C183.6,3.9,182.5,4.5,181.8,5.5z"/>
	<path class="st15" d="M186,12.8L186,12.8l-0.7,0c0,0,0,0,0,0C185.6,12.9,185.8,12.9,186,12.8z"/>
	<path class="st15" d="M184.9,3.6l5.4-0.6l2.4,8.8l-6.3,0.9l0,0.1l6.3-0.9l0.1,0l-2.4-9c0,0,0,0,0,0l0,0l-5.5,0.6c0,0-0.1,0-0.1,0
		l0,0.1C184.8,3.6,184.8,3.6,184.9,3.6z"/>
	<polygon class="st15" points="192.8,11.9 192.8,11.9 192.8,11.9 	"/>
	<path class="st15" d="M181.6,5.3c-0.8,1.1-1.1,2.4-0.9,3.7c0.4,2.3,2.4,3.9,4.6,3.9l0.7-0.1l0.3,0l0-0.1l-0.4,0
		c-2.4,0.3-4.7-1.3-5.2-3.7c-0.5-2.6,1.3-5.1,3.9-5.4l0-0.1C183.5,3.6,182.3,4.3,181.6,5.3z"/>
	<path class="st15" d="M190.3,3l-5.4,0.6c0,0-0.1,0-0.1,0l0,0.1c0,0,0.1,0,0.1,0l5.3-0.5l2.3,8.6l-6.2,0.8l0,0.1l6.3-0.9L190.3,3z"
		/>
	<path class="st15" d="M186,12.6c-2.4,0.3-4.6-1.3-5-3.6c-0.2-1.2,0.1-2.5,0.8-3.5c0.7-1,1.8-1.6,3-1.7l0-0.1
		c-2.6,0.3-4.4,2.8-3.9,5.4c0.4,2.4,2.7,4.1,5.2,3.7l0.4,0l0-0.1L186,12.6z"/>
	<polygon class="st6" points="211.3,20.8 211.3,20.8 211.3,20.8 	"/>
	<path class="st6" d="M192.8,11.9c0.2-0.1,3.8-1.4,5.9-1c0.1,0,0.2,0,0.3,0.1c3.5,0.7,6.5,2.8,8.4,5.8l1.2,1.9l2.4,0l-0.7-5.7
		c-0.3-2.4-1.1-4.8-2.5-6.8c-0.5-0.8-1.2-1.5-1.9-2.1c-2.9-2.7-6.8-4.5-10.6-3.8c-0.8,0.1-1.5,0.5-2.1,0.9l-2.5,1.7
		c-0.2,0.1-0.4,0.2-0.4,0.2l0,0.1L192.8,11.9z"/>
	<polygon class="st6" points="192.8,11.9 192.8,11.9 192.8,11.9 	"/>
	<path class="st6" d="M210.3,21.2L210.3,21.2c0,0.1,0.9-0.2,1-0.3v0l0,0L210.3,21.2z"/>
	<polygon class="st6" points="209.1,19.2 211.1,19.2 211.1,18.6 208.7,18.6 	"/>
	<polygon class="st6" points="210.3,20.2 209.7,20.2 210.3,21.2 	"/>
	<polygon class="st6" points="210.3,20.2 210.3,21.2 210.3,21.2 211.3,20.8 211.1,19.2 209.1,19.2 209.7,20.2 	"/>
	<polygon class="st6" points="192.8,11.9 192.8,11.9 192.8,11.9 190.4,3 190.4,2.9 190.4,2.9 	"/>
	<rect x="81.7" y="16.8" class="st6" width="25" height="1.8"/>
	<rect x="83.1" y="18" class="st6" width="4.8" height="2"/>
	<rect x="87" y="18.4" class="st6" width="9.1" height="1"/>
</g>
</svg>
